<svg xmlns="http://www.w3.org/2000/svg" width="18" height="18" viewBox="0 0 18 18">
    <g fill="none" fill-rule="evenodd">
        <path fill="#C4984F" d="M9.893 17.898h8V7.97h-8z"/>
        <path fill="#C4984F" d="M.267 17.898h10.604V.267H.267z"/>
        <path fill="#FFF" d="M1.584 5.184h1.509v-1.51H1.584zM4.813 5.184h1.51v-1.51h-1.51zM8.043 5.184h1.51v-1.51h-1.51zM1.584 8.782h1.509v-1.51H1.584zM4.813 8.782h1.51v-1.51h-1.51zM8.043 8.782h1.51v-1.51h-1.51zM1.584 12.38h1.509v-1.508H1.584zM4.813 12.38h1.51v-1.508h-1.51zM8.043 12.38h1.51v-1.508h-1.51zM1.584 15.979h1.509V14.47H1.584zM4.813 15.979h1.51V14.47h-1.51zM8.043 15.979h1.51V14.47h-1.51z"/>
    </g>
</svg>
