<svg xmlns="http://www.w3.org/2000/svg" xmlns:xlink="http://www.w3.org/1999/xlink" width="19" height="19" viewBox="0 0 19 19">
    <defs>
        <path id="a" d="M0 0h18.767v18.766H0z"/>
    </defs>
    <g fill="none" fill-rule="evenodd">
        <mask id="b" fill="#fff">
            <use xlink:href="#a"/>
        </mask>
        <path fill="#C4984F" d="M13.78 14.643c-.59 1.868-1.487 3.332-2.551 4.123 2.501-.505 4.646-2.028 6-4.123H13.78zm-3.93 0v3.778c1.296-.278 2.351-1.733 3.016-3.778H9.85zm-3.907 0c.665 2.028 1.695 3.475 2.967 3.77v-3.77H5.943zm-4.405 0c1.354 2.095 3.499 3.618 6 4.123-1.063-.791-1.961-2.255-2.551-4.123h-3.45zm13.007-4.78a18.148 18.148 0 0 1-.49 3.82h3.723a9.613 9.613 0 0 0 .99-3.82h-4.223zm-4.696 0v3.82h3.283c.291-1.161.466-2.457.49-3.82H9.85zm-4.663 0c.034 1.363.2 2.659.49 3.82H8.91v-3.82H5.186zM0 9.863a9.613 9.613 0 0 0 .989 3.82h3.723a18.163 18.163 0 0 1-.49-3.82H0zm14.046-4.78c.283 1.17.466 2.457.5 3.82h4.221a9.65 9.65 0 0 0-.989-3.82h-3.732zm-4.197 0v3.82h3.774c-.034-1.354-.2-2.659-.49-3.82H9.848zm-4.172 0c-.291 1.161-.457 2.466-.49 3.82H8.91v-3.82H5.677zm-4.688 0A9.65 9.65 0 0 0 0 8.903h4.222c.034-1.363.208-2.65.499-3.82H.989zM8.909.362C7.648.665 6.609 2.104 5.944 4.124H8.91V.362zm.94-.009v3.77h3.017C12.193 2.088 11.137.632 9.85.354zM11.212 0c1.072.79 1.97 2.255 2.568 4.124h3.441C15.867 2.028 13.714.505 11.212 0zM7.555 0c-2.51.505-4.654 2.028-6.017 4.124h3.449C5.577 2.255 6.483.79 7.555 0z" mask="url(#b)"/>
    </g>
</svg>
