<?xml version="1.0" encoding="UTF-8"?>
<svg width="176px" height="176px" viewBox="0 0 176 176" version="1.1" xmlns="http://www.w3.org/2000/svg" xmlns:xlink="http://www.w3.org/1999/xlink">
    <!-- Generator: Sketch 53 (72520) - https://sketchapp.com -->
    <title>Commercial Retail</title>
    <desc>Created with Sketch.</desc>
    <g id="Page-1" stroke="none" stroke-width="1" fill="none" fill-rule="evenodd">
        <g id="01_15-Bells-Website_Seller_Post-Property-Flow" transform="translate(-420.000000, -967.000000)">
            <g id="Commercial-Retail" transform="translate(420.000000, 967.000000)">
                <rect id="Rectangle-Copy-2" fill="#F7F7F7" x="0" y="0" width="176" height="176"></rect>
                <g id="Group-27" transform="translate(27.000000, 45.000000)">
                    <g id="Group-28" transform="translate(61.581633, 0.000000)">
                        <polygon id="Fill-1-Copy" fill="#C4984F" points="0 84.1326531 51.1734694 84.1326531 51.1734694 0 0 0"></polygon>
                        <polygon id="Fill-5" fill="#FFFFFF" points="7.80612245 14.7328859 14.7308787 14.7328859 14.7308787 7.80612245 7.80612245 7.80612245"></polygon>
                        <polygon id="Fill-5-Copy-18" fill="#FFFFFF" points="7.80612245 27.74309 14.7308787 27.74309 14.7308787 20.8163265 7.80612245 20.8163265"></polygon>
                        <polygon id="Fill-6" fill="#FFFFFF" points="22.2056011 14.7328859 29.1323646 14.7328859 29.1323646 7.80612245 22.2056011 7.80612245"></polygon>
                        <polygon id="Fill-6-Copy" fill="#FFFFFF" points="22.2056011 27.74309 29.1323646 27.74309 29.1323646 20.8163265 22.2056011 20.8163265"></polygon>
                        <polygon id="Fill-7" fill="#FFFFFF" points="36.607087 14.7328859 43.5338504 14.7328859 43.5338504 7.80612245 36.607087 7.80612245"></polygon>
                        <polygon id="Fill-7-Copy" fill="#FFFFFF" points="36.607087 27.74309 43.5338504 27.74309 43.5338504 20.8163265 36.607087 20.8163265"></polygon>
                        <polygon id="Fill-5-Copy-20" fill="#FFFFFF" points="7.80612245 40.753294 14.7308787 40.753294 14.7308787 33.8265306 7.80612245 33.8265306"></polygon>
                        <polygon id="Fill-6-Copy-2" fill="#FFFFFF" points="22.2056011 40.753294 29.1323646 40.753294 29.1323646 33.8265306 22.2056011 33.8265306"></polygon>
                        <polygon id="Fill-7-Copy-2" fill="#FFFFFF" points="36.607087 40.753294 43.5338504 40.753294 43.5338504 33.8265306 36.607087 33.8265306"></polygon>
                        <polygon id="Fill-5-Copy-21" fill="#FFFFFF" points="7.80612245 40.753294 14.7308787 40.753294 14.7308787 33.8265306 7.80612245 33.8265306"></polygon>
                        <polygon id="Fill-5-Copy-22" fill="#FFFFFF" points="7.80612245 53.7634981 14.7308787 53.7634981 14.7308787 46.8367347 7.80612245 46.8367347"></polygon>
                        <polygon id="Fill-6-Copy-3" fill="#FFFFFF" points="22.2056011 40.753294 29.1323646 40.753294 29.1323646 33.8265306 22.2056011 33.8265306"></polygon>
                        <polygon id="Fill-6-Copy-4" fill="#FFFFFF" points="22.2056011 53.7634981 29.1323646 53.7634981 29.1323646 46.8367347 22.2056011 46.8367347"></polygon>
                        <polygon id="Fill-7-Copy-3" fill="#FFFFFF" points="36.607087 40.753294 43.5338504 40.753294 43.5338504 33.8265306 36.607087 33.8265306"></polygon>
                        <polygon id="Fill-7-Copy-4" fill="#FFFFFF" points="36.607087 53.7634981 43.5338504 53.7634981 43.5338504 46.8367347 36.607087 46.8367347"></polygon>
                        <polygon id="Fill-5-Copy-23" fill="#FFFFFF" points="7.80612245 66.7737022 14.7308787 66.7737022 14.7308787 59.8469388 7.80612245 59.8469388"></polygon>
                        <polygon id="Fill-6-Copy-5" fill="#FFFFFF" points="22.2056011 66.7737022 29.1323646 66.7737022 29.1323646 59.8469388 22.2056011 59.8469388"></polygon>
                        <polygon id="Fill-7-Copy-5" fill="#FFFFFF" points="36.607087 66.7737022 43.5338504 66.7737022 43.5338504 59.8469388 36.607087 59.8469388"></polygon>
                        <polyline id="Stroke-20-Copy" stroke="#FFFFFF" stroke-width="2" points="18.2142857 84.1326531 18.2142857 72.8571429 32.9591837 72.8571429 32.9591837 84.1326531"></polyline>
                    </g>
                    <polygon id="Stroke-3" fill="#B38841" points="13.877551 83.9550037 78.7970524 83.9550037 78.7970524 39.8979592 13.877551 39.8979592"></polygon>
                    <polygon id="Stroke-5" stroke="#FFFFFF" stroke-width="2" points="28.9463978 84.4019718 62.7386148 84.4019718 62.7386148 50.6614212 28.9463978 50.6614212"></polygon>
                    <path d="M22.5510204,50.6614212 L69.4504549,50.6614212" id="Stroke-7" stroke="#FFFFFF" stroke-width="2"></path>
                    <path d="M28.9200794,59.0833174 L62.9234853,59.0833174" id="Stroke-8" stroke="#FFFFFF" stroke-width="2"></path>
                    <path d="M28.9200794,67.1367556 L62.9234853,67.1367556" id="Stroke-9" stroke="#FFFFFF" stroke-width="2"></path>
                    <path d="M28.9200794,75.1901939 L62.9234853,75.1901939" id="Stroke-10" stroke="#FFFFFF" stroke-width="2"></path>
                    <path d="M0,84.0633806 L122.295918,84.0633806" id="Stroke-25" stroke="#B38841" stroke-width="2"></path>
                    <polygon id="Fill-4-Copy-2" fill="#DAAA5A" points="21.6836735 27.755102 70.255102 27.755102 70.255102 12.1428571 21.6836735 12.1428571"></polygon>
                    <rect id="Rectangle" fill="#DAAA5A" x="27.755102" y="26.8877551" width="2.60204082" height="7.80612245"></rect>
                    <rect id="Rectangle-Copy-69" fill="#DAAA5A" x="61.5816327" y="26.8877551" width="2.60204082" height="7.80612245"></rect>
                    <polygon id="Fill-4-Copy" fill="#DAAA5A" points="4.33673469 41.6326531 87.6020408 41.6326531 87.6020408 31.2244898 4.33673469 31.2244898"></polygon>
                    <path d="M28.622449,16.9132653 L62.6258549,16.9132653" id="Path-5" stroke="#FFFFFF" stroke-width="2"></path>
                    <path d="M31.2244898,22.1173469 L60.4166553,22.1173469" id="Path-5-Copy" stroke="#FFFFFF" stroke-width="2"></path>
                </g>
            </g>
        </g>
    </g>
</svg>