<?xml version="1.0" encoding="UTF-8"?>
<svg width="176px" height="176px" viewBox="0 0 176 176" version="1.1" xmlns="http://www.w3.org/2000/svg" xmlns:xlink="http://www.w3.org/1999/xlink">
    <!-- Generator: Sketch 53 (72520) - https://sketchapp.com -->
    <title>Commercial Offices_Icons</title>
    <desc>Created with Sketch.</desc>
    <g id="Page-1" stroke="none" stroke-width="1" fill="none" fill-rule="evenodd">
        <g id="01_15-Bells-Website_Seller_Post-Property-Flow" transform="translate(-158.000000, -967.000000)">
            <g id="Commercial-Offices_Icons" transform="translate(158.000000, 967.000000)">
                <rect id="Rectangle" stroke="#C4984F" stroke-width="2" fill="#F7F7F7" x="1" y="1" width="174" height="174"></rect>
                <g id="Group" transform="translate(39.000000, 45.000000)">
                    <polygon id="Fill-1" fill="#C4984F" points="15.6319775 84.9294729 47.5748101 84.9294729 47.5748101 0.00179914571 15.6319775 0.00179914571"></polygon>
                    <polygon id="Fill-2" fill="#C4984F" points="63.3713094 84.9294729 81.8085548 84.9294729 81.8085548 0.00179914571 63.3713094 0.00179914571"></polygon>
                    <path d="M47.57501,21.8010482 L25.9072984,21.8010482" id="Stroke-3" stroke="#FFFFFF" stroke-width="2"></path>
                    <path d="M47.57501,28.2511855 L25.9072984,28.2511855" id="Stroke-4" stroke="#FFFFFF" stroke-width="2"></path>
                    <path d="M63.3703099,34.7031219 L25.9080981,34.7031219" id="Stroke-5" stroke="#FFFFFF" stroke-width="2"></path>
                    <path d="M63.3703099,34.7031219 L47.5748101,34.7031219" id="Stroke-5" stroke="#C4984F" stroke-width="2"></path>
                    <path d="M47.57501,41.1532592 L25.9072984,41.1532592" id="Stroke-6" stroke="#FFFFFF" stroke-width="2"></path>
                    <path d="M63.3703099,47.6031966 L25.9080981,47.6031966" id="Stroke-7" stroke="#FFFFFF" stroke-width="2"></path>
                    <path d="M63.3703099,47.6031966 L47.5748101,47.6031966" id="Stroke-7" stroke="#C4984F" stroke-width="2"></path>
                    <path d="M47.57501,54.0553329 L25.9072984,54.0553329" id="Stroke-8" stroke="#FFFFFF" stroke-width="2"></path>
                    <path d="M47.57501,60.5052703 L25.9072984,60.5052703" id="Stroke-9" stroke="#FFFFFF" stroke-width="2"></path>
                    <path d="M47.57501,66.9554076 L25.9072984,66.9554076" id="Stroke-10" stroke="#FFFFFF" stroke-width="2"></path>
                    <path d="M47.57501,73.407344 L25.9072984,73.407344" id="Stroke-11" stroke="#FFFFFF" stroke-width="2"></path>
                    <path d="M81.8087547,21.8010482 L72.5911316,21.8010482" id="Stroke-12" stroke="#FFFFFF" stroke-width="2"></path>
                    <path d="M81.8087547,28.2511855 L72.5911316,28.2511855" id="Stroke-13" stroke="#FFFFFF" stroke-width="2"></path>
                    <path d="M81.8087547,34.7031219 L72.5911316,34.7031219" id="Stroke-14" stroke="#FFFFFF" stroke-width="2"></path>
                    <path d="M81.8087547,41.1532592 L72.5911316,41.1532592" id="Stroke-15" stroke="#FFFFFF" stroke-width="2"></path>
                    <path d="M81.8087547,47.6031966 L72.5911316,47.6031966" id="Stroke-16" stroke="#FFFFFF" stroke-width="2"></path>
                    <path d="M81.8087547,54.0553329 L72.5911316,54.0553329" id="Stroke-17" stroke="#FFFFFF" stroke-width="2"></path>
                    <path d="M81.8087547,60.5052703 L72.5911316,60.5052703" id="Stroke-18" stroke="#FFFFFF" stroke-width="2"></path>
                    <path d="M81.8087547,66.9554076 L72.5911316,66.9554076" id="Stroke-19" stroke="#FFFFFF" stroke-width="2"></path>
                    <path d="M81.8087547,73.407344 L72.5911316,73.407344" id="Stroke-20" stroke="#FFFFFF" stroke-width="2"></path>
                    <polygon id="Fill-21" fill="#B38841" points="15.6321774 84.9286733 31.6045932 84.9286733 31.6045932 42.4648364 15.6321774 28.2515853"></polygon>
                    <path d="M50.1032095,34.7031219 L60.8421103,47.6029967" id="Stroke-22" stroke="#C4984F" stroke-width="2"></path>
                    <path d="M60.8423102,34.7031219 L50.1034094,47.6029967" id="Stroke-23" stroke="#C4984F" stroke-width="2"></path>
                    <polygon id="Fill-24" fill="#B38841" points="63.3707097 -2.14939178e-13 63.3707097 13.4855966 81.8059561 -2.14939178e-13"></polygon>
                    <path d="M1.13686838e-13,84.929273 L98.1933748,84.929273" id="Stroke-25" stroke="#B38841" stroke-width="2"></path>
                </g>
            </g>
        </g>
    </g>
</svg>