<?xml version="1.0" encoding="UTF-8"?>
<svg width="79px" height="89px" viewBox="0 0 79 89" version="1.1" xmlns="http://www.w3.org/2000/svg" xmlns:xlink="http://www.w3.org/1999/xlink">
    <!-- Generator: Sketch 53 (72520) - https://sketchapp.com -->
    <title>Group 7</title>
    <desc>Created with Sketch.</desc>
    <g id="Page-1" stroke="none" stroke-width="1" fill="none" fill-rule="evenodd">
        <g id="05_15-Bells-Website_Seller_Post-Property_Pop-Up" transform="translate(-601.000000, -231.000000)" fill="#C4984F">
            <g id="Group-7" transform="translate(601.000000, 231.000000)">
                <polygon id="Stroke-1" points="26.1904 52 20.9504 78.192 36.6704 88.668 36.6704 57.24"></polygon>
                <polygon id="Stroke-3" points="52.3836 52 57.6236 78.192 41.9076 88.668 41.9076 57.24"></polygon>
                <polygon id="Stroke-5" points="57.622 52 62.862 78.192 78.574 88.668 68.098 57.24"></polygon>
                <polygon id="Stroke-7" points="20.952 52 15.712 78.192 5.68434189e-13 88.668 10.476 57.24"></polygon>
                <path d="M40.676986,0.00355659807 C31.6296108,-0.182814729 24.1853915,6.9785035 24.0041652,16.0501278 C23.7532364,28.0850562 34.9056249,40.8188771 39.7336798,46 C44.7801356,41.0238856 56.4343815,28.8025858 56.6806634,16.7210646 C56.8665366,7.64944027 49.7243611,0.189927925 40.676986,0.00355659807 Z M40.3421053,6.05263158 C46.0236842,6.05263158 50.6315789,10.7938596 50.6315789,16.6447368 C50.6315789,22.495614 46.0236842,27.2368421 40.3421053,27.2368421 C34.6605263,27.2368421 30.0526316,22.495614 30.0526316,16.6447368 C30.0526316,10.7938596 34.6605263,6.05263158 40.3421053,6.05263158 Z" id="Site-Visit"></path>
            </g>
        </g>
    </g>
</svg>