<?xml version="1.0" encoding="UTF-8"?>
<svg width="51px" height="48px" viewBox="0 0 51 48" version="1.1" xmlns="http://www.w3.org/2000/svg" xmlns:xlink="http://www.w3.org/1999/xlink">
    <!-- Generator: Sketch 53 (72520) - https://sketchapp.com -->
    <title>Images Copy 3</title>
    <desc>Created with Sketch.</desc>
    <g id="Page-1" stroke="none" stroke-width="1" fill="none" fill-rule="evenodd">
        <g id="11_15-Bells-Website_Seller_Post-Property_Upload-Photos" transform="translate(-109.000000, -1969.000000)">
            <g id="Images-Copy-3" transform="translate(110.000000, 1970.000000)">
                <polygon id="Stroke-1" stroke="#AFAFAF" points="5.25801624e-13 46.0723684 48.6379124 46.0723684 48.6379124 -3.80140364e-13 5.25801624e-13 -3.80140364e-13"></polygon>
                <polygon id="Fill-3" fill="#AFAFAF" points="0.000488577719 28.7823053 0.000488577719 46.0708842 48.6384009 46.0708842 48.6384009 33.8583053 13.6782219 18.9147789"></polygon>
                <polygon id="Fill-4" fill="#AFAFAF" points="29.4903071 26.1145681 48.6384009 35.0507347 48.6376681 20.2075263 39.1104025 14.7431579"></polygon>
                <path d="M33.2743416,12.6692211 C33.2743416,14.7842211 31.5789769,16.5009579 29.4903071,16.5009579 C27.3991944,16.5009579 25.7062726,14.7842211 25.7062726,12.6692211 C25.7062726,10.5542211 27.3991944,8.83748421 29.4903071,8.83748421 C31.5789769,8.83748421 33.2743416,10.5542211 33.2743416,12.6692211" id="Fill-5" fill="#AFAFAF"></path>
            </g>
        </g>
    </g>
</svg>