<?xml version="1.0" encoding="UTF-8"?>
<svg width="177px" height="176px" viewBox="0 0 177 176" version="1.1" xmlns="http://www.w3.org/2000/svg" xmlns:xlink="http://www.w3.org/1999/xlink">
    <!-- Generator: Sketch 53 (72520) - https://sketchapp.com -->
    <title>Industrial</title>
    <desc>Created with Sketch.</desc>
    <g id="Page-1" stroke="none" stroke-width="1" fill="none" fill-rule="evenodd">
        <g id="01_15-Bells-Website_Seller_Post-Property-Flow" transform="translate(-682.000000, -967.000000)">
            <g id="Industrial" transform="translate(682.000000, 967.000000)">
                <rect id="Rectangle-Copy-2" fill="#F7F7F7" x="0" y="0" width="177" height="176"></rect>
                <g id="Industry" transform="translate(34.000000, 45.000000)">
                    <g id="Group-4" transform="translate(11.353208, 0.000000)">
                        <polygon id="Fill-1" fill="#B38841" points="6.96329404 33.2461337 44.5266668 33.2461337 44.5266668 24.2162987 6.96329404 24.2162987"></polygon>
                        <polygon id="Fill-2" fill="#DAAA5A" points="43.0324542 33.2461337 63.3060391 33.2461337 63.3060391 16.5772713 43.0324542 16.5772713"></polygon>
                        <polygon id="Fill-3" fill="#B38841" points="63.3069648 0 63.3069648 33.2486792 74.2274648 33.2486792 74.2274648 5.20984522 63.3092789 0"></polygon>
                        <polygon id="Fill-4" fill="#C4984F" points="5.54223334e-13 84.2292945 85.7880602 84.2292945 85.7880602 31.6863928 5.54223334e-13 31.6863928"></polygon>
                        <polygon id="Fill-5" fill="#FFFFFF" points="13.9983269 53.8606313 21.9821635 53.8606313 21.9821635 45.8744805 13.9983269 45.8744805"></polygon>
                        <polygon id="Fill-6" fill="#FFFFFF" points="30.6000788 53.8606313 38.5862296 53.8606313 38.5862296 45.8744805 30.6000788 45.8744805"></polygon>
                        <polygon id="Fill-7" fill="#FFFFFF" points="47.2041448 53.8606313 55.1902956 53.8606313 55.1902956 45.8744805 47.2041448 45.8744805"></polygon>
                        <polygon id="Fill-8" fill="#FFFFFF" points="63.8035825 53.8606313 71.7897333 53.8606313 71.7897333 45.8744805 63.8035825 45.8744805"></polygon>
                        <polygon id="Fill-9" fill="#FFFFFF" points="13.9983269 70.0412068 21.9821635 70.0412068 21.9821635 62.0550561 13.9983269 62.0550561"></polygon>
                        <polygon id="Fill-10" fill="#FFFFFF" points="30.6000788 70.0412068 38.5862296 70.0412068 38.5862296 62.0550561 30.6000788 62.0550561"></polygon>
                        <polygon id="Fill-11" fill="#FFFFFF" points="47.2041448 70.0412068 55.1902956 70.0412068 55.1902956 62.0550561 47.2041448 62.0550561"></polygon>
                        <polygon id="Fill-12" fill="#FFFFFF" points="63.8035825 70.0412068 71.7897333 70.0412068 71.7897333 62.0550561 63.8035825 62.0550561"></polygon>
                    </g>
                    <path d="M1.84741111e-13,84.6398596 L109.310644,84.6398596" id="Stroke-25" stroke="#B38841" stroke-width="2"></path>
                </g>
            </g>
        </g>
    </g>
</svg>