<?xml version="1.0" encoding="UTF-8"?>
<svg width="19px" height="19px" viewBox="0 0 19 19" version="1.1" xmlns="http://www.w3.org/2000/svg" xmlns:xlink="http://www.w3.org/1999/xlink">
    <!-- Generator: Sketch 53 (72520) - https://sketchapp.com -->
    <title>Phone</title>
    <desc>Created with Sketch.</desc>
    <g id="Page-1" stroke="none" stroke-width="1" fill="none" fill-rule="evenodd">
        <g id="01_15-Bells-Website_Seller-Dashboard_Personal-Details_1.1" transform="translate(-576.000000, -478.000000)" fill="#C4984F">
            <g id="Phone" transform="translate(576.000000, 478.000000)">
                <path d="M18.608232,15.59045 C18.585432,15.02425 18.173132,14.41625 17.383682,13.78165 C15.022932,11.8826 14.361732,12.5533 13.266382,13.66385 L13.051682,13.88045 C12.529182,14.40485 11.678932,14.288 10.524682,13.53845 C9.72383198,13.01785 8.73488198,12.17045 7.58538198,11.02095 C4.74678198,8.1833 3.83953198,6.44575 4.72778198,5.5556 L4.94153198,5.34375 C6.05493198,4.2484 6.72658198,3.58815 4.82658198,1.22455 C4.19103198,0.43605 3.58303198,0.0247 3.01778198,3.16191517e-13 C2.99973198,3.16191517e-13 2.98263198,3.16191517e-13 2.96553198,3.16191517e-13 C2.16278198,3.16191517e-13 1.43983198,0.7619 0.798581977,1.4364 C0.669381977,1.57225 0.544931977,1.70335 0.421431977,1.8259 C-0.193218023,2.44055 -0.131468023,4.05555 0.580081977,5.94225 C1.45978198,8.27165 3.20588198,10.8186 5.49918198,13.11095 C7.79153198,15.40235 10.335632,17.1494 12.666932,18.0272 C14.552682,18.7397 16.167682,18.8005 16.782332,18.1868 C16.904882,18.06425 17.035982,17.93885 17.171832,17.8106 C17.860582,17.15605 18.642432,16.4141 18.608232,15.59045 Z" id="Stroke-1"></path>
            </g>
        </g>
    </g>
</svg>