<?xml version="1.0" encoding="UTF-8"?>
<svg width="18px" height="18px" viewBox="0 0 18 18" version="1.1" xmlns="http://www.w3.org/2000/svg" xmlns:xlink="http://www.w3.org/1999/xlink">
    <!-- Generator: Sketch 53 (72520) - https://sketchapp.com -->
    <title>Type of property</title>
    <desc>Created with Sketch.</desc>
    <g id="Page-1" stroke="none" stroke-width="1" fill="none" fill-rule="evenodd">
        <g id="15-Bells-Website_Seller-Dashboard_Manage-Properties" transform="translate(-650.000000, -407.000000)">
            <g id="Group-6" transform="translate(355.000000, 305.000000)">
                <g id="Type-of-property" transform="translate(295.000000, 102.000000)">
                    <polygon id="Stroke-3" fill="#C4984F" points="9.89272222 17.8976833 17.8927222 17.8976833 17.8927222 7.97018333 9.89272222 7.97018333"></polygon>
                    <polygon id="Stroke-1" fill="#C4984F" points="0.267055556 17.8976833 10.8711667 17.8976833 10.8711667 0.266738889 0.267055556 0.266738889"></polygon>
                    <polygon id="Fill-5" fill="#FFFFFF" points="1.58438889 5.18351667 3.09277778 5.18351667 3.09277778 3.67407222 1.58438889 3.67407222"></polygon>
                    <polygon id="Fill-6" fill="#FFFFFF" points="4.81333333 5.18351667 6.32277778 5.18351667 6.32277778 3.67407222 4.81333333 3.67407222"></polygon>
                    <polygon id="Fill-7" fill="#FFFFFF" points="8.04333333 5.18351667 9.55277778 5.18351667 9.55277778 3.67407222 8.04333333 3.67407222"></polygon>
                    <polygon id="Fill-8" fill="#FFFFFF" points="1.58438889 8.78190556 3.09277778 8.78190556 3.09277778 7.27246111 1.58438889 7.27246111"></polygon>
                    <polygon id="Fill-9" fill="#FFFFFF" points="4.81333333 8.78190556 6.32277778 8.78190556 6.32277778 7.27246111 4.81333333 7.27246111"></polygon>
                    <polygon id="Fill-10" fill="#FFFFFF" points="8.04333333 8.78190556 9.55277778 8.78190556 9.55277778 7.27246111 8.04333333 7.27246111"></polygon>
                    <polygon id="Fill-11" fill="#FFFFFF" points="1.58438889 12.3802944 3.09277778 12.3802944 3.09277778 10.8719056 1.58438889 10.8719056"></polygon>
                    <polygon id="Fill-12" fill="#FFFFFF" points="4.81333333 12.3802944 6.32277778 12.3802944 6.32277778 10.8719056 4.81333333 10.8719056"></polygon>
                    <polygon id="Fill-13" fill="#FFFFFF" points="8.04333333 12.3802944 9.55277778 12.3802944 9.55277778 10.8719056 8.04333333 10.8719056"></polygon>
                    <polygon id="Fill-14" fill="#FFFFFF" points="1.58438889 15.9786833 3.09277778 15.9786833 3.09277778 14.4702944 1.58438889 14.4702944"></polygon>
                    <polygon id="Fill-15" fill="#FFFFFF" points="4.81333333 15.9786833 6.32277778 15.9786833 6.32277778 14.4702944 4.81333333 14.4702944"></polygon>
                    <polygon id="Fill-16" fill="#FFFFFF" points="8.04333333 15.9786833 9.55277778 15.9786833 9.55277778 14.4702944 8.04333333 14.4702944"></polygon>
                </g>
            </g>
        </g>
    </g>
</svg>