<?xml version="1.0" encoding="UTF-8"?>
<svg width="90px" height="88px" viewBox="0 0 90 88" version="1.1" xmlns="http://www.w3.org/2000/svg" xmlns:xlink="http://www.w3.org/1999/xlink">
    <!-- Generator: Sketch 53 (72520) - https://sketchapp.com -->
    <title>VR_Icon</title>
    <desc>Created with Sketch.</desc>
    <g id="Page-1" stroke="none" stroke-width="1" fill="none" fill-rule="evenodd">
        <g id="14_15-Bells-Website_Seller_Post-Property_VR-Pop-up" transform="translate(-596.000000, -231.000000)">
            <g id="VR_Icon" transform="translate(596.000000, 231.000000)">
                <path d="M45.6542452,8.49098569e-13 C56.9784357,8.49098569e-13 66.15815,9.17971429 66.15815,20.5039048 C66.15815,31.8302143 56.9784357,50.3782381 45.6542452,50.3782381 C34.3279357,50.3782381 25.1482214,31.8302143 25.1482214,20.5039048 C25.1482214,9.17971429 34.3279357,8.49098569e-13 45.6542452,8.49098569e-13 Z" id="Stroke-1" fill="#C4984F"></path>
                <path d="M44.5741667,50.3790857 C19.9550714,50.3790857 -8.24229573e-13,67.0199667 -8.24229573e-13,87.5429429 L89.1462143,87.5429429 C89.1462143,67.0199667 69.1911429,50.3790857 44.5741667,50.3790857 Z" id="Stroke-3" fill="#C4984F"></path>
                <polygon id="Fill-5" fill="#AC8441" points="21.3652976 35.8343667 70.3597976 35.8343667 70.3597976 13.8322952 21.3652976 13.8322952"></polygon>
                <path d="M45.8633952,13.8318714 L45.8633952,0.000847619048" id="Stroke-7" stroke="#AC8441" stroke-width="2"></path>
            </g>
        </g>
    </g>
</svg>