<?xml version="1.0" encoding="UTF-8"?>
<svg width="176px" height="176px" viewBox="0 0 176 176" version="1.1" xmlns="http://www.w3.org/2000/svg" xmlns:xlink="http://www.w3.org/1999/xlink">
    <!-- Generator: Sketch 53 (72520) - https://sketchapp.com -->
    <title>Warehouse</title>
    <desc>Created with Sketch.</desc>
    <g id="Page-1" stroke="none" stroke-width="1" fill="none" fill-rule="evenodd">
        <g id="01_15-Bells-Website_Seller_Post-Property-Flow" transform="translate(-945.000000, -967.000000)">
            <g id="Warehouse" transform="translate(945.000000, 967.000000)">
                <rect id="Rectangle-Copy-5" fill="#F7F7F7" x="0" y="0" width="176" height="176"></rect>
                <g id="Group-5" transform="translate(30.000000, 71.000000)">
                    <g id="Group-7" transform="translate(6.857143, 0.000000)">
                        <polygon id="Fill-2" fill="#B38841" points="48.8571429 58.2857143 102.857143 58.2857143 102.857143 18.8571429 48.8571429 18.8571429"></polygon>
                        <polygon id="Fill-1" fill="#C4984F" points="51.4285714 0 0 19.1314412 0 58.2857143 51.4285714 58.2857143"></polygon>
                        <polygon id="Fill-16-Copy" fill="#FFFFFF" points="57.4285714 32.9886865 64.6552784 32.9886865 64.6552784 25.7619795 57.4285714 25.7619795"></polygon>
                        <polygon id="Fill-16-Copy-4" fill="#FFFFFF" points="57.4285714 45.7981355 64.6552784 45.7981355 64.6552784 38.5714286 57.4285714 38.5714286"></polygon>
                        <polygon id="Fill-16-Copy-2" fill="#FFFFFF" points="73.5671079 32.9886865 80.7938149 32.9886865 80.7938149 25.7619795 73.5671079 25.7619795"></polygon>
                        <polygon id="Fill-16-Copy-3" fill="#FFFFFF" points="89.8528222 32.9886865 97.0795292 32.9886865 97.0795292 25.7619795 89.8528222 25.7619795"></polygon>
                        <polygon id="Fill-16-Copy-6" fill="#FFFFFF" points="89.8528222 45.7981355 97.0795292 45.7981355 97.0795292 38.5714286 89.8528222 38.5714286"></polygon>
                        <polygon id="Fill-3" fill="#FFFFFF" points="12 58.2857143 40.2857143 58.2857143 40.2857143 34.2857143 12 34.2857143"></polygon>
                        <polygon id="Fill-3-Copy" fill="#FFFFFF" points="71.1428571 58.2857143 84 58.2857143 84 38.5714286 71.1428571 38.5714286"></polygon>
                        <path d="M12,40.2857143 L40.2857143,40.2857143" id="Line-3" stroke="#C4984F" stroke-width="2" stroke-linecap="square"></path>
                        <path d="M12,46.2857143 L40.2857143,46.2857143" id="Line-3-Copy" stroke="#C4984F" stroke-width="2" stroke-linecap="square"></path>
                        <path d="M12,52.2857143 L40.2857143,52.2857143" id="Line-3-Copy-2" stroke="#C4984F" stroke-width="2" stroke-linecap="square"></path>
                    </g>
                    <path d="M1.56319402e-13,58.6142464 L116.480709,58.6142464" id="Stroke-25" stroke="#B38841" stroke-width="2"></path>
                </g>
            </g>
        </g>
    </g>
</svg>