<?xml version="1.0" encoding="UTF-8"?>
<svg width="19px" height="19px" viewBox="0 0 19 19" version="1.1" xmlns="http://www.w3.org/2000/svg" xmlns:xlink="http://www.w3.org/1999/xlink">
    <!-- Generator: Sketch 53 (72520) - https://sketchapp.com -->
    <title>Website</title>
    <desc>Created with Sketch.</desc>
    <defs>
        <polygon id="path-1" points="2.34567901e-05 7.125e-05 18.7673086 7.125e-05 18.7673086 18.7661337 2.34567901e-05 18.7661337"></polygon>
    </defs>
    <g id="Page-1" stroke="none" stroke-width="1" fill="none" fill-rule="evenodd">
        <g id="03_15-Bells-Website_Seller-Dashboard_Company-Details_1.1" transform="translate(-706.000000, -386.000000)">
            <g id="Website" transform="translate(706.000000, 386.000000)">
                <mask id="mask-2" fill="white">
                    <use xlink:href="#path-1"></use>
                </mask>
                <g id="Clip-2"></g>
                <path d="M13.7804185,14.6426588 C13.1902457,16.5108337 12.2925543,17.9750212 11.2287889,18.7661338 C13.7304556,18.2612087 15.8748753,16.7381212 17.2297395,14.6426588 L13.7804185,14.6426588 Z M9.84906049,14.6426587 L9.84906049,18.4210462 C11.1457519,18.1434087 12.2013074,16.6875337 12.8663074,14.6426587 L9.84906049,14.6426587 Z M5.94256667,14.6426588 C6.60756667,16.6706712 7.63825802,18.1182338 8.90985062,18.4127337 L8.90985062,14.6426588 L5.94256667,14.6426588 Z M1.53761605,14.6426588 C2.89248025,16.7381212 5.03666543,18.2612087 7.53856667,18.7661338 C6.47456667,17.9750212 5.57687531,16.5108337 4.98693704,14.6426588 L1.53761605,14.6426588 Z M14.5451099,9.86273375 C14.5118012,11.2259837 14.3372827,12.5220212 14.0546284,13.6833962 L17.7781593,13.6833962 C18.3516778,12.5303337 18.7009494,11.2345337 18.7673321,9.86273375 L14.5451099,9.86273375 Z M9.84906049,9.86273375 L9.84906049,13.6833962 L13.1320728,13.6833962 C13.4231716,12.5220212 13.5976901,11.2259837 13.6225543,9.86273375 L9.84906049,9.86273375 Z M5.18631975,9.86273375 C5.2196284,11.2259837 5.38570247,12.5220212 5.67680123,13.6833962 L8.90985062,13.6833962 L8.90985062,9.86273375 L5.18631975,9.86273375 Z M2.34567901e-05,9.86273375 C0.0664061728,11.2345337 0.41544321,12.5303337 0.988961728,13.6833962 L4.71249259,13.6833962 C4.43007284,12.5220212 4.25555432,11.2259837 4.22224568,9.86273375 L2.34567901e-05,9.86273375 Z M14.0464185,5.08280875 C14.3290728,6.25249625 14.5118012,7.54022125 14.5451099,8.90347125 L18.7673321,8.90347125 C18.7009494,7.53167125 18.3516778,6.24418375 17.7781593,5.08280875 L14.0464185,5.08280875 Z M9.84906049,5.08280875 L9.84906049,8.90347125 L13.6225543,8.90347125 C13.5892457,7.54853375 13.4231716,6.24418375 13.1320728,5.08280875 L9.84906049,5.08280875 Z M5.67680123,5.08280875 C5.38570247,6.24418375 5.2196284,7.54853375 5.18631975,8.90347125 L8.90985062,8.90347125 L8.90985062,5.08280875 L5.67680123,5.08280875 Z M0.988961728,5.08280875 C0.41544321,6.24418375 0.0664061728,7.53167125 2.34567901e-05,8.90347125 L4.22224568,8.90347125 C4.25555432,7.54022125 4.43007284,6.25249625 4.72093704,5.08280875 L0.988961728,5.08280875 Z M8.90985062,0.36178375 C7.64670247,0.66483375 6.60756667,2.10384625 5.94256667,4.12354625 L8.90985062,4.12354625 L8.90985062,0.36178375 Z M9.84906049,0.35347125 L9.84906049,4.12354625 L12.8663074,4.12354625 C12.192863,2.08698375 11.1373074,0.63110875 9.84906049,0.35347125 L9.84906049,0.35347125 Z M11.2121346,7.125e-05 C12.2843444,0.79094625 13.1820358,2.25537125 13.7804185,4.12354625 L17.2212951,4.12354625 C15.8666654,2.02808375 13.7140358,0.50499625 11.2121346,7.125e-05 L11.2121346,7.125e-05 Z M7.55498642,7.125e-05 C5.04510988,0.50499625 2.90069012,2.02808375 1.53761605,4.12354625 L4.98693704,4.12354625 C5.57687531,2.25537125 6.48301111,0.79094625 7.55498642,7.125e-05 L7.55498642,7.125e-05 Z" id="Fill-1" fill="#C4984F" mask="url(#mask-2)"></path>
            </g>
        </g>
    </g>
</svg>