<svg xmlns="http://www.w3.org/2000/svg" width="165" height="117" viewBox="0 0 165 117">
    <g fill="none" fill-rule="evenodd">
        <path fill="#C4984F" stroke="#221D36" stroke-width="2" d="M92.77 115.713V1H1v114.713h69.125"/>
        <path stroke="#221D36" stroke-width="2" d="M12.471 17.695H81.3M12.471 29.167H81.3M12.471 40.638H81.3M12.471 52.11h38.82"/>
        <g fill="#C4984F" stroke="#221D36" stroke-width="2">
            <path d="M69.65 100.841h29.863v-7.475H69.65zM64.748 115.772h39.668v-7.475H64.748z"/>
            <path d="M71.57 108.316h26.023v-7.475H71.57z"/>
        </g>
        <g stroke="#221D36" stroke-width="2">
            <path d="M39.436 84.737c0 6.07-4.919 10.99-10.989 10.99-6.068 0-10.989-4.92-10.989-10.99s4.92-10.99 10.99-10.99c6.069 0 10.988 4.92 10.988 10.99z"/>
            <path d="M19.028 91.016l-6.28 9.42 7.85-1.57 3.14 7.85 4.709-9.42 4.71 9.42 3.14-7.85 7.85 1.57-6.28-9.42"/>
        </g>
        <path fill="#C4984F" stroke="#221D36" stroke-width="2" d="M112.785 61.097l-10.04 23.226-13.128-5.675 10.039-23.225z"/>
        <path fill="#C4984F" stroke="#000" d="M163.318 96.722a4.545 4.545 0 0 1-5.976 2.368l-51.38-22.208 3.607-8.344 51.38 22.208a4.545 4.545 0 0 1 2.369 5.976z"/>
        <path fill="#C4984F" stroke="#221D36" stroke-width="2" d="M117.171 57.41l-2.034 4.704-17.835-7.709 2.034-4.705zM105.1 85.34l-2.035 4.705-17.835-7.71 2.034-4.704z"/>
        <path fill="#AF8643" stroke="#221D36" stroke-width="2" d="M158.782 84.289l-7.628 17.646-5.84-2.523 7.629-17.647z"/>
    </g>
</svg>
