<svg xmlns="http://www.w3.org/2000/svg" width="112" height="117" viewBox="0 0 112 117">
    <g fill="none" fill-rule="evenodd" stroke="#221D36" stroke-width="2">
        <path fill="#C4984F" d="M92.77 77V1H1v114.713h91.77"/>
        <path d="M12.471 17.695H81.3M12.471 29.167H81.3M12.471 40.638H81.3M12.471 52.11h38.82M39.436 84.737c0 6.07-4.919 10.99-10.989 10.99-6.068 0-10.989-4.92-10.989-10.99s4.92-10.99 10.99-10.99c6.069 0 10.988 4.92 10.988 10.99z"/>
        <path d="M19.028 91.016l-6.28 9.42 7.85-1.57 3.14 7.85 4.709-9.42 4.71 9.42 3.14-7.85 7.85 1.57-6.28-9.42"/>
        <g>
            <path fill="#C4984F" d="M111 92c0 13.253-10.745 24-24 24s-24-10.747-24-24c0-13.255 10.745-24 24-24s24 10.745 24 24z"/>
            <path d="M88 77v17.333L73 103"/>
        </g>
    </g>
</svg>
