<svg xmlns="http://www.w3.org/2000/svg" width="13" height="25" viewBox="0 0 13 25">
    <g fill="none" fill-rule="evenodd">
        <path fill="#C4984F" d="M0 12.043h12.043V0H0zM0 24.795h12.043v-2H0z"/>
        <path fill="#FFF" d="M6.148 5.834c.48 0 .72-.208.72-.623 0-.213-.06-.371-.179-.474-.119-.103-.299-.154-.541-.154h-.912v1.25h.912zM4.275 3.85H6.27c.472 0 .84.12 1.102.357.263.239.395.571.395.998 0 .427-.132.76-.395.998-.262.239-.63.358-1.102.358H5.236v1.632h-.961V3.85z"/>
        <path stroke="#C4984F" stroke-width="2" d="M6.021 11.246V24"/>
    </g>
</svg>
