<svg xmlns="http://www.w3.org/2000/svg" width="25" height="25" viewBox="0 0 25 25">
    <g fill="none" fill-rule="evenodd">
        <path fill="#C4984F" d="M19.88 15.387L9.435 4.944l3.578-3.577a4.665 4.665 0 0 1 6.598 0l3.844 3.844a4.666 4.666 0 0 1 0 6.599l-3.577 3.577z"/>
        <path stroke="#C4984F" stroke-width="2" d="M20.555 4.268l3.124-3.124M9.533 9.719l3.124-3.124M15.104 15.29l3.124-3.124"/>
        <path fill="#C4984F" d="M4.944 9.436L15.387 19.88l-3.578 3.577a4.666 4.666 0 0 1-6.598 0l-3.845-3.844a4.666 4.666 0 0 1 0-6.598l3.578-3.578z"/>
        <path stroke="#C4984F" stroke-width="2" d="M4.268 20.555l-3.124 3.124"/>
    </g>
</svg>
