<svg xmlns="http://www.w3.org/2000/svg" width="224" height="118" viewBox="0 0 224 118">
    <g fill="none" fill-rule="evenodd">
        <g stroke="#221D36" stroke-width="2">
            <path fill="#C4984F" d="M72 81.5c0 19.603-15.893 35.5-35.5 35.5S1 101.103 1 81.5C1 61.893 16.893 46 36.5 46S72 61.893 72 81.5z"/>
            <g stroke-linecap="round">
                <path d="M22.487 81.223V70.392c0-1.309 1.089-2.392 2.404-2.392h22.22c1.316 0 2.404 1.083 2.404 2.392v5.235M49.56 81.494v10.877c0 1.308-1.088 2.392-2.403 2.392H24.936c-1.315 0-2.403-1.084-2.403-2.392v-5.236M22.442 81.314l5.351-5.326M22.351 81.314L17 75.988M49.833 81.088l-5.352 5.325M49.923 81.088l5.351 5.325"/>
            </g>
        </g>
        <path fill="#C4984F" stroke="#221D36" stroke-width="2" d="M60.489 90.543h51.701V77.6H60.49zM52 116.394h68.679v-12.942H52z"/>
        <path fill="#C4984F" stroke="#221D36" stroke-width="2" d="M63.813 103.485h45.053V90.543H63.813zM135.168 21.733l-17.38 40.21-22.731-9.825 17.38-40.21z"/>
        <path fill="#C4984F" stroke="#000" d="M222.659 83.41a7.87 7.87 0 0 1-10.347 4.1l-88.955-38.45 6.244-14.446 88.956 38.45a7.869 7.869 0 0 1 4.102 10.346z"/>
        <path fill="#C4984F" stroke="#221D36" stroke-width="2" d="M142.763 15.347l-3.521 8.146-30.879-13.347L111.885 2zM121.862 63.704l-3.522 8.146-30.878-13.347 3.521-8.146z"/>
        <path fill="#AF8643" stroke="#221D36" stroke-width="2" d="M214.805 61.885l-13.207 30.551-10.109-4.368 13.207-30.553z"/>
    </g>
</svg>
