<svg xmlns="http://www.w3.org/2000/svg" xmlns:xlink="http://www.w3.org/1999/xlink" width="33" height="25" viewBox="0 0 33 25">
    <defs>
        <path id="a" d="M0 .04h4.591v6.58H0z"/>
        <path id="c" d="M.232.096h26.895v15.963H.232z"/>
    </defs>
    <g fill="none" fill-rule="evenodd">
        <path fill="#C4984F" d="M32.955 23.303c-3.295.004-6.59.016-9.885.003-.526-.002-.883.1-1.235.57-.925 1.234-2.72 1.36-3.88.362-1.173-1.013-1.408-2.909-.22-3.86 1.105-.883.794-1.88.824-3.02-.29.12-.519.188-.718.305-.778.46-1.525.8-2.395.118-.178-.14-.679.01-.967.154-2.82 1.41-5.625 2.849-8.56 4.343l-4.23-8.308.129-.171c.258.095.525.171.773.288 2.33 1.1 4.665 2.193 6.98 3.325.447.218.778.206 1.212-.016 5.125-2.624 10.262-5.229 15.395-7.837.241-.123.487-.236.78-.377l.974 1.883c-1.214.623-2.381 1.264-3.587 1.822-.644.298-.987.664-.998 1.414-.004.294-.32.774-.58.843-1.944.514-2.412 1.811-2.151 3.629.07.492.083.886.608 1.111.238.102.504.312.602.54.353.818.999.83 1.748.821 2.829-.032 5.657-.01 8.486-.016.298 0 .597-.045.895-.068v2.142z"/>
        <g transform="translate(0 15.53)">
            <mask id="b" fill="#fff">
                <use xlink:href="#a"/>
            </mask>
            <path fill="#C4984F" d="M0 .853L1.675.04l2.916 5.72-1.627.86L0 1.018V.853z" mask="url(#b)"/>
        </g>
        <g transform="translate(1.136 .188)">
            <mask id="d" fill="#fff">
                <use xlink:href="#c"/>
            </mask>
            <path fill="#C4984F" d="M23.646.096l3.48 6.839c-.271.154-.476.28-.69.39-5.59 2.847-11.185 5.688-16.77 8.55-.458.235-.814.25-1.284.02-2.658-1.293-5.334-2.55-8.15-3.888L23.646.096" mask="url(#d)"/>
        </g>
    </g>
</svg>
