<svg xmlns="http://www.w3.org/2000/svg" width="196" height="196" viewBox="0 0 196 196">
    <defs>
        <filter id="a" width="130.7%" height="130.7%" x="-15.3%" y="-15.3%" filterUnits="objectBoundingBox">
            <feOffset dy="4" in="SourceAlpha" result="shadowOffsetOuter1"/>
            <feGaussianBlur in="shadowOffsetOuter1" result="shadowBlurOuter1" stdDeviation="5"/>
            <feColorMatrix in="shadowBlurOuter1" result="shadowMatrixOuter1" values="0 0 0 0 0.807843137 0 0 0 0 0.807843137 0 0 0 0 0.807843137 0 0 0 0.5 0"/>
            <feMerge>
                <feMergeNode in="shadowMatrixOuter1"/>
                <feMergeNode in="SourceGraphic"/>
            </feMerge>
        </filter>
    </defs>
    <g fill="none" fill-rule="evenodd" filter="url(#a)" transform="translate(10 6)">
        <path fill="#F7F7F7" stroke="#C4984F" stroke-width="2" d="M1 1h174v174H1z"/>
        <g transform="translate(38 45)">
            <path fill="#B38841" d="M71.899 2.344v7.37H28.731v-7.37s19.5-5.274 43.168 0"/>
            <path fill="#C4984F" d="M24.517 17.413h51.597V9.147H24.517z"/>
            <path fill="#B38841" d="M20.322 23.89H80.31v-7.372H20.322z"/>
            <path fill="#C4984F" d="M19.222 84.087h62.186V23.89H19.222z"/>
            <circle cx="30.169" cy="34.812" r="5.372" fill="#B38841"/>
            <circle cx="70.669" cy="34.812" r="5.372" fill="#B38841"/>
            <path stroke="#B38841" stroke-width="2" d="M14.877 23.89h70.875M39.46 53.988h-8.585M62.205 53.988h8.584M21.809 53.988h-6.931M78.521 53.988h6.931M39.46 68.866h-8.585M62.205 68.866h8.584M21.809 68.866h-6.931M78.521 68.866h6.931"/>
            <path fill="#B38841" d="M24.796 84.103H35.57V44.318H24.796z"/>
            <path fill="#FFF" stroke="#FFF" stroke-width="2" d="M50.376 30.514c-6.367 0-11.529 5.195-11.529 11.602v42.123h23.06V42.116c0-6.407-5.163-11.602-11.53-11.602z"/>
            <path stroke="#B38841" stroke-width="2" d="M0 84.183h100.044"/>
            <path fill="#B38841" d="M65.297 84.103h10.772V44.318H65.297z"/>
        </g>
    </g>
</svg>
