<?xml version="1.0" encoding="UTF-8"?>
<svg width="176px" height="176px" viewBox="0 0 176 176" version="1.1" xmlns="http://www.w3.org/2000/svg" xmlns:xlink="http://www.w3.org/1999/xlink">
    <!-- Generator: Sketch 53.2 (72643) - https://sketchapp.com -->
    <title>Delhi</title>
    <desc>Created with Sketch.</desc>
    <g id="Page-1" stroke="none" stroke-width="1" fill="none" fill-rule="evenodd">
        <g id="02_15-Bells-Website_Buyer_Browse-Property_Location" transform="translate(-110.000000, -967.000000)">
            <g id="Delhi" transform="translate(110.000000, 967.000000)">
                <rect id="Rectangle" fill="#F7F7F7" x="0" y="0" width="176" height="176"></rect>
                <g transform="translate(38.000000, 45.000000)">
                    <path d="M71.8989603,2.34374406 L71.8989603,9.71489019 L28.7306509,9.71489019 L28.7306509,2.34374406 C28.7306509,2.34374406 48.2313577,-2.92968008 71.8989603,2.34374406" id="Fill-2" fill="#B38841"></path>
                    <polygon id="Fill-1" fill="#C4984F" points="24.5167077 17.4126223 76.1135887 17.4126223 76.1135887 9.14723771 24.5167077 9.14723771"></polygon>
                    <polygon id="Fill-4" fill="#B38841" points="20.3224057 23.88953 80.3090327 23.88953 80.3090327 16.5183838 20.3224057 16.5183838"></polygon>
                    <polygon id="Stroke-6" fill="#C4984F" points="19.2215869 84.0874137 81.4075675 84.0874137 81.4075675 23.88953 19.2215869 23.88953"></polygon>
                    <circle id="Oval" fill="#B38841" cx="30.1686538" cy="34.8123173" r="5.3725"></circle>
                    <circle id="Oval-Copy" fill="#B38841" cx="70.6690385" cy="34.8123173" r="5.3725"></circle>
                    <path d="M14.8773497,23.8897584 L85.7522615,23.8897584" id="Stroke-7" stroke="#B38841" stroke-width="2"></path>
                    <path d="M39.4593389,53.9884718 L30.8750894,53.9884718" id="Line-4" stroke="#B38841" stroke-width="2"></path>
                    <path d="M70.8678004,53.9884718 L62.2835509,53.9884718" id="Line-4-Copy-4" stroke="#B38841" stroke-width="2" transform="translate(66.536346, 54.235971) scale(-1, 1) translate(-66.536346, -54.235971) "></path>
                    <path d="M21.8088653,53.9884718 L14.8776923,53.9884718" id="Line-4-Copy-2" stroke="#B38841" stroke-width="2"></path>
                    <path d="M85.4523269,53.9884718 L78.5211538,53.9884718" id="Line-4-Copy-5" stroke="#B38841" stroke-width="2" transform="translate(81.986740, 53.988472) scale(-1, 1) translate(-81.986740, -53.988472) "></path>
                    <path d="M39.4593389,68.8661641 L30.8750894,68.8661641" id="Line-4-Copy" stroke="#B38841" stroke-width="2"></path>
                    <path d="M70.8678004,68.8661641 L62.2835509,68.8661641" id="Line-4-Copy-6" stroke="#B38841" stroke-width="2" transform="translate(66.536346, 69.113663) scale(-1, 1) translate(-66.536346, -69.113663) "></path>
                    <path d="M21.8088653,68.8661641 L14.8776923,68.8661641" id="Line-4-Copy-3" stroke="#B38841" stroke-width="2"></path>
                    <path d="M85.4523269,68.8661641 L78.5211538,68.8661641" id="Line-4-Copy-7" stroke="#B38841" stroke-width="2" transform="translate(81.986740, 68.866164) scale(-1, 1) translate(-81.986740, -68.866164) "></path>
                    <polygon id="Stroke-9" fill="#B38841" points="24.7961538 84.1034279 35.5691039 84.1034279 35.5691039 44.3175096 24.7961538 44.3175096"></polygon>
                    <path d="M50.3762142,30.5143173 L50.3762142,30.5143173 C44.0088229,30.5143173 38.8473077,35.7089519 38.8473077,42.1157828 L38.8473077,84.2393173 L61.9062626,84.2393173 L61.9062626,42.1157828 C61.9062626,35.7089519 56.7436055,30.5143173 50.3762142,30.5143173 Z" id="Stroke-8" stroke="#FFFFFF" stroke-width="2" fill="#FFFFFF"></path>
                    <path d="M3.05533376e-13,84.1831817 L100.044121,84.1831817" id="Stroke-25" stroke="#B38841" stroke-width="2"></path>
                    <polygon id="Stroke-10" fill="#B38841" points="65.2965385 84.1034279 76.0694885 84.1034279 76.0694885 44.3175096 65.2965385 44.3175096"></polygon>
                </g>
            </g>
        </g>
    </g>
</svg>