<svg xmlns="http://www.w3.org/2000/svg" width="176" height="176" viewBox="0 0 176 176">
    <g fill="none" fill-rule="evenodd">
        <path fill="#F7F7F7" d="M0 0h176v176H0z"/>
        <path stroke="#C4984F" stroke-width="2" d="M48.678 87.347v-6.472M66.359 80.875H41.132"/>
        <path fill="#B38841" d="M46.522 128.795h19.837V86.52H46.522z"/>
        <path fill="#C4984F" d="M64.519 128.795h64.74v-78.02H64.52z"/>
        <path fill="#FFF" d="M70.888 67.188h8.134V59.05h-8.134zM70.888 81.239h8.134v-8.137h-8.134zM85.766 67.188H93.9V59.05h-8.134zM85.766 81.239H93.9v-8.137h-8.134zM100.643 67.188h8.135V59.05h-8.135zM100.643 81.239h8.135v-8.137h-8.135zM115.521 67.188h8.134V59.05h-8.134zM115.521 81.239h8.134v-8.137h-8.134zM70.888 95.29h8.134v-8.137h-8.134zM85.766 95.29H93.9v-8.137h-8.134zM100.643 95.29h8.135v-8.137h-8.135zM115.521 95.29h8.134v-8.137h-8.134zM70.888 109.341h8.134v-8.136h-8.134zM85.766 109.341H93.9v-8.136h-8.134zM85.766 129.178h23.143v-14.051H85.766z"/>
        <path stroke="#B38841" stroke-width="2" d="M37 129.509h101.006"/>
        <path fill="#FFF" d="M100.643 109.341h8.135v-8.136h-8.135zM115.521 109.341h8.134v-8.136h-8.134zM70.888 123.392h8.134v-8.136h-8.134zM115.521 123.392h8.134v-8.136h-8.134z"/>
        <path stroke="#C4984F" stroke-width="2" d="M67.44 52.066v-6.471M125.937 52.066v-6.471M133.737 45.594h-73.4"/>
    </g>
</svg>
