<svg xmlns="http://www.w3.org/2000/svg" width="176" height="176" viewBox="0 0 176 176">
    <g fill="none" fill-rule="evenodd">
        <path fill="#F7F7F7" d="M0 0h176v176H0z"/>
        <path fill="#B38841" d="M36 127.6h16V73.002H36zM121 127.6h17V73.002h-17z"/>
        <path fill="#C4984F" d="M52 127.6h69V85.16H52z"/>
        <path fill="#B38841" d="M58.886 127.6h56.636V92.914H58.886z"/>
        <path fill="#FFF" d="M68.13 104.884h5.272v-5.272h-5.273zM79.09 104.884h5.27v-5.272h-5.27zM90.05 104.884h5.272v-5.272H90.05zM101.012 104.884h5.272v-5.272h-5.272zM68.13 114.541h5.272v-5.272h-5.273zM79.09 114.541h5.27v-5.272h-5.27zM90.05 114.541h5.272v-5.272H90.05zM101.012 114.541h5.272v-5.272h-5.272zM68.13 124.199h5.272v-5.273h-5.273zM79.09 124.199h5.27v-5.273h-5.27zM90.05 124.199h5.272v-5.273H90.05zM101.012 124.199h5.272v-5.273h-5.272z"/>
        <path fill="#262626" d="M41.147 121.563V79.89v41.674z"/>
        <path stroke="#FFF" stroke-width="2" d="M46.47 79.89v41.672M40.764 79.89v41.672M132.472 79.89v41.672M126.764 79.89v41.672"/>
        <path stroke="#B38841" stroke-width="2" d="M26 127.268h124.565"/>
    </g>
</svg>
