<svg xmlns="http://www.w3.org/2000/svg" width="177" height="176" viewBox="0 0 177 176">
    <g fill="none" fill-rule="evenodd">
        <path fill="#F7F7F7" d="M0 0h177v176H0z"/>
        <path fill="#B38841" d="M52.317 78.246H89.88v-9.03H52.317z"/>
        <path fill="#DAAA5A" d="M88.386 78.246h20.273V61.577H88.386z"/>
        <path fill="#B38841" d="M108.66 45v33.249h10.92v-28.04L108.663 45z"/>
        <path fill="#C4984F" d="M45.353 129.23h85.788V76.685H45.353z"/>
        <path fill="#FFF" d="M59.352 98.86h7.983v-7.986h-7.983zM75.953 98.86h7.986v-7.986h-7.986zM92.557 98.86h7.987v-7.986h-7.987zM109.157 98.86h7.986v-7.986h-7.986zM59.352 115.041h7.983v-7.986h-7.983zM75.953 115.041h7.986v-7.986h-7.986zM92.557 115.041h7.987v-7.986h-7.987zM109.157 115.041h7.986v-7.986h-7.986z"/>
        <path stroke="#B38841" stroke-width="2" d="M34 129.64h109.31"/>
    </g>
</svg>
