<svg xmlns="http://www.w3.org/2000/svg" width="176" height="176" viewBox="0 0 176 176">
    <g fill="none" fill-rule="evenodd">
        <path fill="#F7F7F7" d="M0 0h176v176H0z"/>
        <path fill="#C4984F" d="M88.582 129.133h51.173V45H88.582z"/>
        <path fill="#FFF" d="M96.388 59.733h6.925v-6.927h-6.925zM96.388 72.743h6.925v-6.927h-6.925zM110.787 59.733h6.927v-6.927h-6.927zM110.787 72.743h6.927v-6.927h-6.927zM125.189 59.733h6.926v-6.927h-6.926zM125.189 72.743h6.926v-6.927h-6.926zM96.388 85.753h6.925v-6.926h-6.925zM110.787 85.753h6.927v-6.926h-6.927zM125.189 85.753h6.926v-6.926h-6.926z"/>
        <path fill="#FFF" d="M96.388 85.753h6.925v-6.926h-6.925zM96.388 98.763h6.925v-6.926h-6.925zM110.787 85.753h6.927v-6.926h-6.927zM110.787 98.763h6.927v-6.926h-6.927zM125.189 85.753h6.926v-6.926h-6.926zM125.189 98.763h6.926v-6.926h-6.926zM96.388 111.774h6.925v-6.927h-6.925zM110.787 111.774h6.927v-6.927h-6.927zM125.189 111.774h6.926v-6.927h-6.926z"/>
        <path stroke="#FFF" stroke-width="2" d="M106.796 129.133v-11.276h14.745v11.276"/>
        <path fill="#B38841" d="M40.878 128.955h64.92V84.898h-64.92z"/>
        <path stroke="#FFF" stroke-width="2" d="M55.946 129.402H89.74v-33.74H55.946zM49.551 95.661h46.9M55.92 104.083h34.003M55.92 112.137h34.003M55.92 120.19h34.003"/>
        <path stroke="#B38841" stroke-width="2" d="M27 129.063h122.296"/>
        <path fill="#DAAA5A" d="M48.684 72.755h48.571V57.143H48.684z"/>
        <path fill="#DAAA5A" d="M54.755 71.888h2.602v7.806h-2.602zM88.582 71.888h2.602v7.806h-2.602z"/>
        <path fill="#DAAA5A" d="M31.337 86.633h83.265V76.224H31.337z"/>
        <path stroke="#FFF" stroke-width="2" d="M55.622 61.913h34.004M58.224 67.117h29.193"/>
    </g>
</svg>
