<svg xmlns="http://www.w3.org/2000/svg" width="176" height="176" viewBox="0 0 176 176">
    <g fill="none" fill-rule="evenodd">
        <path fill="#F7F7F7" d="M0 0h176v176H0z"/>
        <path fill="#B38841" d="M85.714 129.286h54V89.857h-54z"/>
        <path fill="#C4984F" d="M88.286 71L36.857 90.131v39.155h51.429z"/>
        <path fill="#FFF" d="M94.286 103.989h7.226v-7.227h-7.226zM94.286 116.798h7.226v-7.227h-7.226zM110.424 103.989h7.227v-7.227h-7.227zM126.71 103.989h7.227v-7.227h-7.227zM126.71 116.798h7.227v-7.227h-7.227zM48.857 129.286h28.286v-24H48.857zM108 129.286h12.857V109.57H108z"/>
        <path stroke="#C4984F" stroke-linecap="square" stroke-width="2" d="M48.857 111.286h28.286M48.857 117.286h28.286M48.857 123.286h28.286"/>
        <path stroke="#B38841" stroke-width="2" d="M30 129.614h116.48"/>
    </g>
</svg>
