<svg xmlns="http://www.w3.org/2000/svg" width="11" height="20" viewBox="0 0 11 20">
    <path fill="#FFF" fill-rule="nonzero" d="M10.586.004L7.947 0c-2.964 0-4.88 1.932-4.88 4.922v2.27H.416A.411.411 0 0 0 0 7.598v3.289c0 .225.186.407.415.407h2.653v8.297c0 .226.185.408.415.408h3.46c.23 0 .416-.183.416-.408v-8.297h3.101c.23 0 .415-.182.415-.407l.001-3.289a.405.405 0 0 0-.121-.288.419.419 0 0 0-.294-.12H7.36V5.268c0-.925.224-1.394 1.449-1.394l1.777-.001A.411.411 0 0 0 11 3.465V.412a.411.411 0 0 0-.414-.408z"/>
</svg>
