<svg xmlns="http://www.w3.org/2000/svg" width="20" height="20" viewBox="0 0 20 20">
    <g fill="#FFF" fill-rule="nonzero">
        <path d="M14.48 0H5.52A5.526 5.526 0 0 0 0 5.52v8.96A5.525 5.525 0 0 0 5.52 20h8.96A5.526 5.526 0 0 0 20 14.48V5.52A5.526 5.526 0 0 0 14.48 0zm3.746 14.48a3.75 3.75 0 0 1-3.745 3.746H5.519a3.749 3.749 0 0 1-3.745-3.745V5.519A3.749 3.749 0 0 1 5.52 1.774h8.962a3.75 3.75 0 0 1 3.745 3.745v8.962z"/>
        <path d="M10 4.762A5.244 5.244 0 0 0 4.762 10 5.244 5.244 0 0 0 10 15.238 5.244 5.244 0 0 0 15.238 10 5.244 5.244 0 0 0 10 4.762zm0 8.672A3.438 3.438 0 0 1 6.566 10 3.438 3.438 0 0 1 10 6.565 3.438 3.438 0 0 1 13.434 10 3.438 3.438 0 0 1 10 13.434zM15.714 2.857a1.434 1.434 0 0 0-1.428 1.429c0 .375.153.744.42 1.01a1.44 1.44 0 0 0 1.008.418c.377 0 .744-.153 1.01-.418a1.44 1.44 0 0 0 .419-1.01c0-.377-.152-.746-.418-1.01a1.435 1.435 0 0 0-1.01-.419z"/>
    </g>
</svg>
