<svg xmlns="http://www.w3.org/2000/svg" width="497" height="134" viewBox="0 0 497 134">
    <g fill="none" fill-rule="evenodd" opacity=".4">
        <g opacity=".5">
            <path fill="#D8D8D8" d="M131.954 132.467h59.195V35h-59.195z"/>
            <path fill="#FFF" d="M140.983 52.068h8.01v-8.025h-8.01zM140.983 67.14h8.01v-8.024h-8.01zM157.64 52.068h8.013v-8.025h-8.013zM157.64 67.14h8.013v-8.024h-8.013zM174.3 52.068h8.012v-8.025h-8.013zM174.3 67.14h8.012v-8.024h-8.013zM140.983 82.212h8.01v-8.024h-8.01zM157.64 82.212h8.013v-8.024h-8.013zM174.3 82.212h8.012v-8.024h-8.013z"/>
            <path fill="#FFF" d="M140.983 82.212h8.01v-8.024h-8.01zM140.983 97.284h8.01V89.26h-8.01zM157.64 82.212h8.013v-8.024h-8.013zM157.64 97.284h8.013V89.26h-8.013zM174.3 82.212h8.012v-8.024h-8.013zM174.3 97.284h8.012V89.26h-8.013zM140.983 112.357h8.01v-8.025h-8.01zM157.64 112.357h8.013v-8.025h-8.013zM174.3 112.357h8.012v-8.025h-8.013z"/>
            <path stroke="#FFF" stroke-width="2" d="M153.023 132.467v-13.063h17.056v13.063"/>
            <path fill="#C3C0C0" d="M76.771 132.261h75.097v-51.04H76.77z"/>
            <path stroke="#FFF" stroke-width="2" d="M94.202 132.779h39.09V93.69h-39.09zM86.804 93.69h54.252M94.172 103.447h39.334M94.172 112.777h39.334M94.172 122.107h39.334"/>
            <path stroke="#C3C0C0" stroke-width="2" d="M60.718 132.387h141.468"/>
            <path fill="#C3C0C0" d="M85.801 67.154h56.186V49.067H85.8z"/>
            <path fill="#C3C0C0" d="M92.824 66.149h3.01v9.043h-3.01zM131.953 66.149h3.01v9.043h-3.01z"/>
            <path fill="#C3C0C0" d="M65.735 83.231h96.318V71.173H65.735z"/>
            <path stroke="#FFF" stroke-width="2" d="M93.828 54.594h39.333M96.838 60.623h33.768"/>
            <g>
                <path fill="#C3C0C0" d="M368.408 131.7h69.212V81.166h-69.212z"/>
                <path fill="#D8D8D8" d="M371.704 57L305.79 81.519v50.18h65.915z"/>
                <path fill="#FFF" d="M379.394 99.278h9.263v-9.261h-9.263zM379.394 115.695h9.263v-9.262h-9.263zM400.079 99.278h9.262v-9.261h-9.262zM420.952 99.278h9.263v-9.261h-9.263zM420.952 115.695h9.263v-9.262h-9.263zM321.169 131.7h36.254v-30.76h-36.254zM396.972 131.7h16.479v-25.267h-16.48z"/>
                <path stroke="#C3C0C0" stroke-linecap="square" stroke-width="2" d="M321.169 108.63h36.254M321.169 116.32h36.254M321.169 124.01h36.254"/>
                <path stroke="#C3C0C0" stroke-width="2" d="M297 132.12h149.292"/>
            </g>
            <path fill="#C3C0C0" d="M0 131h497v3H0z"/>
        </g>
        <path fill="#DDDCDC" d="M199 123h98V0h-98z"/>
        <path stroke="#FFF" stroke-width="4" d="M211 22h74M211 34h74M211 46h74M211 59h37"/>
    </g>
</svg>
