<svg xmlns="http://www.w3.org/2000/svg" width="20" height="19" viewBox="0 0 20 19">
    <g fill="#FFF" fill-rule="nonzero">
        <path d="M3.92 6H.29C.131 6 0 6.139 0 6.31v12.38c0 .171.13.31.291.31H3.92c.161 0 .292-.139.292-.31V6.31c0-.171-.13-.31-.292-.31zM2.633 0C1.18 0 0 1.121 0 2.5 0 3.877 1.181 5 2.633 5c1.45 0 2.63-1.122 2.63-2.5 0-1.379-1.18-2.5-2.63-2.5zM14.66 5c-1.679 0-2.92.7-3.672 1.495V5.65a.33.33 0 0 0-.335-.325H6.65a.33.33 0 0 0-.335.325v13.025c0 .18.15.326.335.326h4.17a.33.33 0 0 0 .335-.326V12.23c0-2.172.608-3.018 2.168-3.018 1.699 0 1.834 1.357 1.834 3.13v6.332c0 .18.15.326.336.326h4.17a.33.33 0 0 0 .336-.326V11.53C20 8.3 19.365 5 14.66 5z"/>
    </g>
</svg>
