<svg xmlns="http://www.w3.org/2000/svg" width="120" height="135" viewBox="0 0 120 135">
    <g fill="#C4984F" fill-rule="evenodd">
        <path d="M40 79l-8 40 24 16V87.003zM79.998 79L88 119l-24 16V87.003zM88 79l8.003 40L120 135l-16-47.997zM32 79l-8.003 40L0 135l16-47.997zM62.512.005c-13.84-.283-25.228 10.614-25.506 24.42C36.623 42.737 53.683 62.114 61.07 70c7.72-7.572 25.549-26.17 25.926-44.555C87.279 11.64 76.353.29 62.512.005zM62 9.211c8.692 0 15.74 7.214 15.74 16.118 0 8.903-7.048 16.118-15.74 16.118S46.26 34.232 46.26 25.33C46.26 16.425 53.307 9.21 62 9.21z"/>
    </g>
</svg>
