<svg xmlns="http://www.w3.org/2000/svg" width="539" height="134" viewBox="0 0 539 134">
    <g fill="none" fill-rule="evenodd" opacity=".6">
        <path fill="#C3C0C0" d="M269.902.01c-24.36-.495-44.403 18.498-44.89 42.558-.676 31.918 29.35 65.69 42.35 79.432 13.587-13.198 44.965-45.61 45.628-77.653.5-24.06-18.729-43.843-43.088-44.338zm-.94 15.684c15.501 0 28.073 12.41 28.073 27.727 0 15.316-12.572 27.727-28.073 27.727-15.501 0-28.073-12.411-28.073-27.727s12.572-27.727 28.073-27.727z" opacity=".5"/>
        <g opacity=".5">
            <path fill="#D8D8D8" d="M390.992 132.343h64.163V27h-64.163z"/>
            <path fill="#FFF" d="M400.78 45.447h8.682v-8.673h-8.683zM400.78 61.737h8.682v-8.673h-8.683zM418.834 45.447h8.685v-8.673h-8.685zM418.834 61.737h8.685v-8.673h-8.685zM436.89 45.447h8.686v-8.673h-8.685zM436.89 61.737h8.686v-8.673h-8.685zM400.78 78.027h8.682v-8.673h-8.683zM418.834 78.027h8.685v-8.673h-8.685zM436.89 78.027h8.686v-8.673h-8.685z"/>
            <path fill="#FFF" d="M400.78 78.027h8.682v-8.673h-8.683zM400.78 94.318h8.682v-8.673h-8.683zM418.834 78.027h8.685v-8.673h-8.685zM418.834 94.318h8.685v-8.673h-8.685zM436.89 78.027h8.686v-8.673h-8.685zM436.89 94.318h8.686v-8.673h-8.685zM400.78 110.608h8.682v-8.673h-8.683zM418.834 110.608h8.685v-8.673h-8.685zM436.89 110.608h8.686v-8.673h-8.685z"/>
            <path stroke="#FFF" stroke-width="2" d="M413.83 132.343v-14.118h18.487v14.118"/>
            <path fill="#C3C0C0" d="M331.179 132.12h81.398V76.957h-81.398z"/>
            <path stroke="#FFF" stroke-width="2" d="M350.072 132.68h42.37V90.433h-42.37zM342.054 90.433h58.804M350.04 100.979h42.634M350.04 111.062h42.634M350.04 121.146h42.634"/>
            <path stroke="#C3C0C0" stroke-width="2" d="M313.778 132.256h153.34"/>
            <path fill="#C3C0C0" d="M340.966 61.752h60.9V42.204h-60.9z"/>
            <path fill="#C3C0C0" d="M348.578 60.666h3.263v9.774h-3.263zM390.991 60.666h3.263v9.774h-3.263z"/>
            <path fill="#C3C0C0" d="M319.216 79.128h104.4V66.096h-104.4z"/>
            <path stroke="#FFF" stroke-width="2" d="M349.666 48.177h42.635M352.929 54.693h36.602"/>
            <g>
                <path fill="#C3C0C0" d="M147.597 131.49h75.21V76.364h-75.21z"/>
                <path fill="#D8D8D8" d="M151.179 50L79.55 76.748v54.742h71.629z"/>
                <path fill="#FFF" d="M159.535 96.122H169.6V86.018h-10.065zM159.535 114.03H169.6v-10.103h-10.065zM182.013 96.122h10.065V86.018h-10.065zM204.695 96.122h10.065V86.018h-10.065zM204.695 114.03h10.065v-10.103h-10.065zM96.264 131.49h39.395V97.935H96.264zM178.636 131.49h17.907v-27.563h-17.907z"/>
                <path stroke="#C3C0C0" stroke-linecap="square" stroke-width="2" d="M96.264 106.324h39.395M96.264 114.713h39.395M96.264 123.101h39.395"/>
                <path stroke="#C3C0C0" stroke-width="2" d="M70 131.95h162.23"/>
            </g>
            <path fill="#C3C0C0" d="M0 131h539v3H0z"/>
        </g>
    </g>
</svg>
