<svg xmlns="http://www.w3.org/2000/svg" xmlns:xlink="http://www.w3.org/1999/xlink" width="19" height="25" viewBox="0 0 19 25">
    <defs>
        <path id="a" d="M0 0h18.892v24.903H0z"/>
    </defs>
    <g fill="none" fill-rule="evenodd">
        <mask id="b" fill="#fff">
            <use xlink:href="#a"/>
        </mask>
        <path fill="#C4984F" d="M3.286 24.903c.004-4.865.01-9.73.013-14.595.003-2.362 1.127-3.922 3.366-4.692.13-.045.319-.193.317-.291-.003-.212-.057-.472-.19-.623-.227-.256-.532-.442-.82-.67C4.602 4.5 3.28 5.673 1.847 7.737L0 6.987c.903-1.732 2.178-3.04 3.865-4.19H.553V.999h2.93c.552 0 1.105-.004 1.658 0 .62.006 1.187-.03 1.775-.384 1.022-.616 2.371-.18 2.952.876.204.37.427.463.817.462.594-.001 1.116.028 1.505-.604.307-.499.916-.62 1.508-.684 1.647-.18 3.291-.391 4.936-.594.05-.006.098-.046.147-.07h.11v5.417c-.968-.081-1.877-.154-2.785-.234-.79-.07-1.576-.166-2.366-.222-.786-.055-1.409-.358-1.858-1.026-.091-.134-.311-.209-.486-.251-.174-.042-.367.003-.55-.012-.515-.04-.976-.014-1.252.541-.09.18-.366.26-.487.434-.138.2-.25.45-.266.687-.008.098.243.263.403.318 1.889.642 3.165 2.277 3.178 4.279.032 4.865.012 9.731.009 14.597 0 .125-.045.25-.07.374H3.287z" mask="url(#b)"/>
    </g>
</svg>
