<svg xmlns="http://www.w3.org/2000/svg" width="28" height="30" viewBox="0 0 28 30">
    <g fill="none" fill-rule="evenodd">
        <path fill="#C4984F" d="M18.3 18.476c.006.2.159.366.407.478 1.453.656 2.902 1.319 4.354 1.976.406.184.704.1.853-.227.148-.326-.003-.635-.404-.818-.42-.192-.842-.382-1.264-.573-1.039-.471-2.077-.946-3.119-1.411-.435-.195-.832.05-.827.575m-9.138-.028c-.063-.462-.43-.73-.815-.58-.348.136-.683.304-1.024.459-1.173.532-2.347 1.063-3.518 1.6-.339.156-.459.47-.32.779.133.29.426.41.745.266a314.757 314.757 0 0 0 4.537-2.07c.166-.077.265-.3.395-.454m2.467 3.582l2.068-2.68 2.07 2.678c.062-.132.105-.216.142-.303.585-1.388 1.157-2.783 1.763-4.162.14-.316.395-.583.61-.863.028-.036.145-.036.203-.012 1.655.713 3.328 1.388 4.952 2.163 1.178.562 2.032 1.517 2.644 2.671.772 1.456 1.237 3 1.307 4.656.024.58-.005.634-.552.853-1.435.577-2.936.898-4.458 1.128-3.226.49-6.476.634-9.734.583-2.792-.043-5.577-.211-8.333-.699-1.35-.239-2.68-.556-3.95-1.091-.252-.107-.37-.275-.36-.545.073-2.122.674-4.075 1.915-5.808a5.626 5.626 0 0 1 2.257-1.87c1.56-.708 3.145-1.36 4.716-2.043.154-.067.214-.004.315.1.503.52.708 1.198.982 1.837.438 1.023.863 2.052 1.295 3.077.037.09.08.178.148.33"/>
        <path fill="#C4984F" d="M7.733 7.71c4 1.543 7.93 1.635 11.931-.025 0 .343-.008.623.005.902.004.097.036.226.103.279.277.219.392.513.437.843.229 1.646-.37 3.012-1.423 4.23a1.62 1.62 0 0 0-.3.524c-.335.987-.838 1.869-1.586 2.602-1.926 1.886-4.596 1.854-6.481-.076-.71-.727-1.193-1.586-1.512-2.546a1.494 1.494 0 0 0-.29-.498c-.941-1.078-1.525-2.295-1.475-3.757.018-.505.051-1.013.526-1.35.053-.037.06-.159.062-.242.008-.273.003-.547.003-.886"/>
        <path fill="#C4984F" d="M6.957 6.562C9.073 5.557 11.222 4.968 13.5 4.93c2.418-.04 4.692.574 6.944 1.63-2.18 1.034-4.39 1.633-6.737 1.635-2.352.003-4.566-.601-6.749-1.633"/>
        <path stroke="#FFF" d="M9.161 18.448c-.13.155-.228.377-.394.455-1.505.705-3.02 1.388-4.537 2.069-.319.143-.612.025-.744-.266-.14-.308-.02-.623.32-.779 1.17-.537 2.344-1.068 3.518-1.6.34-.155.675-.323 1.023-.459.385-.15.752.118.814.58zM18.3 18.476c-.005-.525.392-.77.827-.575 1.042.465 2.08.94 3.12 1.411.42.19.842.38 1.263.573.401.183.552.492.404.818-.149.327-.447.41-.853.227-1.452-.657-2.901-1.32-4.354-1.976-.248-.112-.4-.277-.407-.478z"/>
        <path fill="#FFF" d="M13.717 23.133h.009l.091 5.913-.1-5.913zm.47-.043a.994.994 0 0 0 .327-.121c.436-.28.656-1.093.656-1.093l-1.422-1.822-1.4 1.836c.187.932.855 1.198.855 1.198l.054.008-1.47 5.064 2.04 1.583h.001l1.989-1.648-1.63-5.005z"/>
        <path fill="#C4984F" d="M15.009 2.855c-.359.934-1.135 1.23-1.168 1.242a.05.05 0 0 1-.033-.002c-.038-.018-.944-.462-1.174-1.243-.116-.393-.17-1.377-.173-1.419 0-.012.004-.024.013-.032a.041.041 0 0 1 .032-.012c.001 0 .027.002.072.002.113 0 .34-.012.579-.092.329-.11.633-.516.636-.52a.041.041 0 0 1 .032-.017.04.04 0 0 1 .034.014c.003.004.357.408.69.528.205.075.403.09.531.09.073 0 .118-.005.119-.005a.043.043 0 0 1 .047.045c-.003.041-.08 1.012-.237 1.421m5.943 2.308a3.081 3.081 0 0 0-.703-1.667c-1.634-1.992-3.79-3.023-6.324-3.12-2.428-.092-4.522.848-6.27 2.529-.532.51-.95 1.109-1.136 1.84-.12.469-.14.932.12 1.412 4.718-2.302 9.417-2.297 14.121 0a1.69 1.69 0 0 0 .192-.994"/>
    </g>
</svg>
