<svg xmlns="http://www.w3.org/2000/svg" width="22" height="22" viewBox="0 0 22 22">
    <path fill="#C4984F" fill-rule="evenodd" d="M21.999 18.433c-.027-.67-.515-1.389-1.448-2.139-2.79-2.245-3.573-1.452-4.867-.14l-.254.257c-.618.62-1.623.482-2.988-.404-.946-.616-2.116-1.618-3.475-2.977C5.612 9.675 4.54 7.62 5.59 6.568l.253-.25c1.316-1.295 2.11-2.076-.136-4.87C4.955.516 4.236.029 3.568 0h-.062C2.556 0 1.702.9.944 1.698c-.153.16-.3.316-.446.46-.726.727-.653 2.637.188 4.868C1.726 9.78 3.79 12.79 6.5 15.5c2.71 2.71 5.718 4.775 8.474 5.813 2.23.842 4.138.914 4.865.188.145-.145.3-.293.46-.444.815-.774 1.74-1.652 1.699-2.625z"/>
</svg>
