<svg xmlns="http://www.w3.org/2000/svg" width="30" height="30" viewBox="0 0 30 30">
    <g fill="none" fill-rule="evenodd">
        <path fill="#AFAFAF" d="M23.543 1.95l4.607 4.556a5.501 5.501 0 0 1 0 7.84l-4.29 4.242L11.328 6.192l4.294-4.247a5.648 5.648 0 0 1 7.921.005"/>
        <path stroke="#AFAFAF" stroke-width="2" d="M24.669 5.387l3.748-3.71M11.442 11.856l3.749-3.71M18.128 18.466l3.748-3.708"/>
        <path fill="#AFAFAF" d="M6.255 28.161L1.64 23.6a5.501 5.501 0 0 1 0-7.84l4.29-4.243 12.534 12.399-4.294 4.246a5.648 5.648 0 0 1-7.925 0h.009z"/>
        <path stroke="#AFAFAF" stroke-width="2" d="M5.126 24.717l-3.752 3.708"/>
    </g>
</svg>
