<svg xmlns="http://www.w3.org/2000/svg" width="41" height="30" viewBox="0 0 41 30">
    <g fill="#AFAFAF" fill-rule="evenodd">
        <path d="M40 27.942c-4 0-8 .02-12 0a1.597 1.597 0 0 0-1.497.69 3.248 3.248 0 0 1-4.71.437c-1.424-1.227-1.724-3.531-.265-4.683 1.34-1.072.962-2.286 1-3.669-.299.106-.59.23-.873.373-.944.558-1.851.968-2.907.141-.217-.169-.824 0-1.176.186-3.42 1.724-6.827 3.448-10.39 5.272-1.724-3.382-3.427-6.73-5.134-10.082l.159-.207c.314.114.638.207.938.345 2.827 1.334 5.662 2.662 8.472 4.034a1.444 1.444 0 0 0 1.47 0 4759.44 4759.44 0 0 1 18.689-9.513c.29-.149.59-.287.945-.459l1.182 2.286c-1.472.755-2.89 1.535-4.355 2.214-.779.345-1.196.803-1.21 1.724a1.324 1.324 0 0 1-.69 1.034c-2.358.625-2.927 2.2-2.61 4.404.083.6.1 1.08.738 1.352.311.126.57.356.73.651.428.997 1.211 1.01 2.122 1 3.448-.038 6.865 0 10.3-.02.345 0 .724-.056 1.086-.083L40 27.942zM0 19.541l2.034-.986 3.538 6.942-1.975 1.034c-1.22-2.307-2.414-4.555-3.597-6.8v-.19z"/>
        <path d="M30.08 0l4.227 8.303c-.345.187-.58.345-.838.473a7569.48 7569.48 0 0 0-20.345 10.376c-.478.29-1.074.3-1.562.027-3.224-1.572-6.472-3.103-9.893-4.72C11.217 9.6 20.617 4.817 30.079 0"/>
    </g>
</svg>
