<svg xmlns="http://www.w3.org/2000/svg" width="34" height="27" viewBox="0 0 34 27">
    <g fill="none" fill-rule="evenodd">
        <path stroke="#C4984F" stroke-width="2" d="M1 7.538c7.984-8.4 22.656-9.033 31.548.01M5.762 12.31c5.31-5.202 15.66-5.881 22.024-.052M11.119 17.645c2.52-3.15 9.236-3.148 11.905.022"/>
        <path fill="#FFF" d="M19.452 23.659A2.383 2.383 0 0 1 17.06 26a2.38 2.38 0 0 1-2.37-2.362 2.358 2.358 0 0 1 2.463-2.398 2.357 2.357 0 0 1 2.3 2.419"/>
        <path stroke="#C4984F" stroke-width="2" d="M19.452 23.659A2.383 2.383 0 0 1 17.06 26a2.38 2.38 0 0 1-2.37-2.362 2.358 2.358 0 0 1 2.463-2.398 2.357 2.357 0 0 1 2.3 2.419z"/>
    </g>
</svg>
