<svg xmlns="http://www.w3.org/2000/svg" width="40" height="29" viewBox="0 0 40 29">
    <g fill="none" fill-rule="evenodd">
        <path stroke="#AFAFAF" stroke-width="2" d="M1.153 8.766C10.732-1.209 28.335-1.96 39 8.766M6.808 13.55c6.39-6.294 18.834-7.115 26.49-.063M13.111 17.884c2.949-3.793 10.8-3.793 13.921.027"/>
        <path fill="#FFF" d="M22.746 25.225a2.669 2.669 0 1 1-5.335-.038 2.67 2.67 0 1 1 5.335.024v.014z"/>
        <path stroke="#AFAFAF" stroke-width="2" d="M22.746 25.225a2.669 2.669 0 1 1-5.335-.038 2.67 2.67 0 1 1 5.335.024v.014z"/>
    </g>
</svg>
