<svg xmlns="http://www.w3.org/2000/svg" width="30" height="31" viewBox="0 0 30 31">
    <g fill="none" fill-rule="evenodd">
        <path fill="#AFAFAF" d="M7.964 4h8.239V1h-8.24z"/>
        <path stroke="#FFF" d="M7.964 4h8.239V1h-8.24z"/>
        <path fill="#AFAFAF" d="M19.268 7.623s7.654 3.204 4.81 10.902l.932.229c3.459-9.36-5.228-13.15-5.228-13.15l-.514 2.02z"/>
        <path fill="#AFAFAF" d="M3.757 9.493H20.41V3.8H3.757z"/>
        <path stroke="#FFF" d="M3.757 9.493H20.41V3.8H3.757z"/>
        <path fill="#AFAFAF" d="M23.166 19.218c0-6.12-4.962-11.083-11.083-11.083C5.963 8.135 1 13.097 1 19.218s4.962 11.083 11.083 11.083 11.083-4.962 11.083-11.083"/>
        <path stroke="#FFF" d="M23.166 19.218c0-6.12-4.962-11.083-11.083-11.083C5.963 8.135 1 13.097 1 19.218s4.962 11.083 11.083 11.083 11.083-4.962 11.083-11.083z"/>
        <path fill="#AFAFAF" d="M25.675 19.986a2.1 2.1 0 1 0-4.2 0 2.1 2.1 0 0 0 4.2 0"/>
        <path stroke="#FFF" d="M25.675 19.986a2.1 2.1 0 1 0-4.2 0 2.1 2.1 0 0 0 4.2 0z"/>
        <path stroke="#AFAFAF" d="M24.24 23.344a2.867 2.867 0 0 0 2.868-2.867M24.66 25.163a4.266 4.266 0 0 0 4.267-4.266"/>
        <path fill="#FFF" d="M10.782 24.447S8.79 23.95 8.291 22.06c-.498-1.89-.045-3.979.77-4.725.815-.746.286.084.286.69s0 1.231.416 1.287c.416.056.85-.27.824-.783-.026-.513-.288-.83-.382-1.633-.044-.377-.172-1.69.133-2.52.205-.558.928-1.62 1.413-1.826.484-.205.33.038.288.411-.042.373-.622 2.145.083 3.069.705.923.768 1.295.768 1.295s.25.535.508.28c.184-.181.951-1.576 2.013-1.8 0 0 .331-.13.212.122-.119.252-.849 1.762-.238 3.04.612 1.278.782 1.493.663 2.49-.12.999-.73 2.659-2.225 2.966 0 0-.221.15.06-.326.28-.476.475-.877.059-1.79-.417-.915-.035-1.52-.035-1.52s.137-.272-.033-.272-.873.188-1.037.877c-.115.488-.475-.13-.475-.13s-.552-.896-.221-2.052c0 0 .077-.373-.212-.206-.289.168-.74.849-.688 1.493.05.643.235 1.166.246 1.305.03.39-.068.504-.255.607-.186.102-.39-.17-.424-.308a1.234 1.234 0 0 1-.002-.477c.044-.214-.082-.338-.238-.184-.155.154-.61.77-.497 1.475.112.705.346 1.055.564 1.17.218.116.49.495.147.363"/>
    </g>
</svg>
