<svg xmlns="http://www.w3.org/2000/svg" width="23" height="32" viewBox="0 0 23 32">
    <g fill="none" fill-rule="evenodd">
        <path fill="#AFAFAF" d="M1.001 30.952H22.25V1H1z"/>
        <path stroke="#FFF" stroke-width=".228" d="M1.001 30.952H22.25V1H1.001z"/>
        <path fill="#FFF" d="M6.04 12.67h11.17V3.622H6.04zM2.394 19.98h1.218V2.25H2.394zM19.639 19.98h1.217V2.25H19.64zM14.578 15.165h.443v-.443h-.443zM15.34 15.146h.444v-.443h-.443zM16.106 15.146h.444v-.443h-.444zM14.578 15.829h.443v-.444h-.443zM15.34 15.81h.444v-.444h-.443zM16.106 15.81h.444v-.444h-.444zM14.578 16.534h.443v-.443h-.443zM15.34 16.515h.444v-.443h-.443zM16.106 16.515h.444v-.443h-.444z"/>
        <path stroke="#FFF" stroke-width=".219" d="M13.95 16.978h3.259v-2.999h-3.26z"/>
        <path fill="#FFF" d="M5.987 14.44h3.559v-.607H5.987zM5.987 17.107h5.962V16.09H5.987z"/>
        <path stroke="#FFF" d="M1 30.882h21.115V20.067H1z"/>
        <path fill="#FFF" d="M6.626 24.543l-.533 1.592h1.073l-.54-1.592zm.812 2.409H5.814l-.26.769H4.447l1.572-4.35h1.227l1.574 4.35H7.7l-.26-.77zM9.064 23.371h3.364v.85h-1.151v3.5h-1.06v-3.5H9.064zM12.964 23.371h1.251l1.22 3.012 1.21-3.012h1.244v4.35h-1.06v-2.61l-.971 2.61h-.855l-.98-2.615v2.615h-1.06z"/>
    </g>
</svg>
