<svg xmlns="http://www.w3.org/2000/svg" width="33" height="30" viewBox="0 0 33 30">
    <g fill="none" fill-rule="evenodd">
        <path fill="#C4984F" d="M8.036 28.287c0 .792-.66 1.452-1.452 1.452H5.462c-.792 0-1.386-.661-1.386-1.453v.001-1.98h3.96v1.98zM28.886 28.287c0 .792-.66 1.452-1.451 1.452h-1.122c-.792 0-1.385-.66-1.385-1.451v-1.98h3.958v1.98zM30.526 25.453H2.16V2.186C2.161.979 3.14 0 4.347 0H28.34c1.208 0 2.186.979 2.186 2.186v23.267z"/>
        <path fill="#C4984F" d="M4.853 13.67H16.34V3.6H4.853z"/>
        <path stroke="#FFF" d="M4.853 13.67H16.34V3.6H4.853z"/>
        <path fill="#C4984F" d="M16.348 13.67h11.486V3.6H16.348z"/>
        <path stroke="#FFF" d="M16.348 13.67h11.486V3.6H16.348z"/>
        <path fill="#C4984F" d="M31.075 6.65h1.653V2.645h-1.653zM0 6.65h1.652V2.645H0z"/>
        <path fill="#FFFEFD" d="M10.554 19.587h11.579v-.63H10.554zM10.554 20.847h11.579v-.63H10.554zM7.343 21.3H4.895a.978.978 0 0 1-.978-.977V19.6c0-.54.438-.978.978-.978h2.448c.54 0 .978.438.978.978v.723c0 .54-.438.977-.978.977M27.573 21.3h-2.448a.978.978 0 0 1-.978-.977V19.6c0-.54.438-.978.978-.978h2.448c.54 0 .978.438.978.978v.723c0 .54-.438.977-.978.977"/>
    </g>
</svg>
