<svg xmlns="http://www.w3.org/2000/svg" width="32" height="30" viewBox="0 0 32 30">
    <g fill="none" fill-rule="evenodd">
        <path fill="#AFAFAF" d="M29.377 12.774h.741a.892.892 0 0 0 .876-.877v-.74a.892.892 0 0 0-.876-.876h-1.415l-1.886-6.536c-.27-.944-1.146-1.55-2.09-1.55H7.143c-.943 0-1.819.674-2.088 1.55L3.167 10.28H1.684a.892.892 0 0 0-.876.876v.74c0 .472.405.877.876.877h.742A5.902 5.902 0 0 0 0 17.557l.808 6.402c0 .808.674 1.414 1.416 1.414h27.49c.809 0 1.415-.673 1.415-1.414l.808-6.402c-.067-1.953-1.078-3.706-2.56-4.783"/>
        <path fill="#FFFEFD" d="M7.748 18.853H4.312a.892.892 0 0 0-.876.876v.74c0 .473.404.876.876.876h3.436a.892.892 0 0 0 .876-.875v-.741a.892.892 0 0 0-.876-.876M26.075 12.421c.27 0 .607 0 .944.074l-2.156-8.137c-.068-.074-.068-.074-.135-.074H7.142c-.067 0-.134 0-.134.074l-2.09 8.137c.27-.074.607-.074.944-.074h20.213zM27.423 18.853h-3.436a.892.892 0 0 0-.876.876v.74c0 .473.404.876.876.876h3.436a.892.892 0 0 0 .876-.875v-.741a.892.892 0 0 0-.876-.876"/>
        <path fill="#AFAFAF" d="M7.277 28.203c0 .809-.674 1.482-1.482 1.482H4.649c-.809 0-1.415-.674-1.415-1.482v-2.02h4.043v2.02zM28.569 28.203c0 .809-.674 1.482-1.483 1.482h-1.145c-.808 0-1.415-.673-1.415-1.481v-2.022h4.043v2.021z"/>
        <path fill="#FFFEFD" d="M11.972 21.524h7.756v-.639h-7.756zM11.972 22.802h7.756v-.639h-7.756z"/>
        <path fill="#AFAFAF" d="M20.261 2.045h-8.585L12.801 0h6.5z"/>
        <path fill="#FFFEFD" d="M14.118.509h.85v.215h-.29v.883h-.268V.724h-.292zM15.582.805l-.135.401h.27l-.135-.401zm.205.608h-.41l-.066.194h-.28l.397-1.098h.31l.397 1.098h-.283l-.065-.194zM16.706 1.27l-.198.337h-.303l.352-.559-.36-.54h.311l.22.333.195-.332h.303l-.349.554.363.544h-.311zM17.376 1.607h.267V.509h-.267z"/>
    </g>
</svg>
