<svg xmlns="http://www.w3.org/2000/svg" width="39" height="31" viewBox="0 0 39 31">
    <g fill="none" fill-rule="evenodd">
        <path fill="#C4984F" d="M3.577 10.394v20.13h3.437V20.122h5.427v10.404h23.642V10.394H3.577zM16.67 27.542h16.597v-7.74H16.67v7.74z"/>
        <path fill="#C4984F" d="M38.099 13.3l-1.602-2.24L29.307 1H8.835L2.398 11.165l-1.344 2.123-.054.086h.06a2.386 2.386 0 0 0 2.383 2.321c1.113 0 2.04-.763 2.306-1.793a2.38 2.38 0 0 0 2.303 1.793 2.385 2.385 0 0 0 2.305-1.79 2.385 2.385 0 0 0 2.305 1.79 2.385 2.385 0 0 0 2.305-1.79 2.384 2.384 0 0 0 2.305 1.79 2.384 2.384 0 0 0 2.304-1.79 2.385 2.385 0 0 0 2.305 1.79 2.384 2.384 0 0 0 2.304-1.79 2.385 2.385 0 0 0 2.305 1.79 2.385 2.385 0 0 0 2.305-1.79 2.384 2.384 0 0 0 2.305 1.79 2.381 2.381 0 0 0 2.304-1.793 2.384 2.384 0 0 0 2.306 1.793 2.386 2.386 0 0 0 2.382-2.32h.06L38.1 13.3z"/>
        <path stroke="#FFF" d="M38.099 13.3l-1.602-2.24L29.307 1H8.835L2.398 11.165l-1.344 2.123-.054.086h.06a2.386 2.386 0 0 0 2.383 2.321c1.113 0 2.04-.763 2.306-1.793a2.38 2.38 0 0 0 2.303 1.793 2.385 2.385 0 0 0 2.305-1.79 2.385 2.385 0 0 0 2.305 1.79 2.385 2.385 0 0 0 2.305-1.79 2.384 2.384 0 0 0 2.305 1.79 2.384 2.384 0 0 0 2.304-1.79 2.385 2.385 0 0 0 2.305 1.79 2.384 2.384 0 0 0 2.304-1.79 2.385 2.385 0 0 0 2.305 1.79 2.385 2.385 0 0 0 2.305-1.79 2.384 2.384 0 0 0 2.305 1.79 2.381 2.381 0 0 0 2.304-1.793 2.384 2.384 0 0 0 2.306 1.793 2.386 2.386 0 0 0 2.382-2.32h.06L38.1 13.3z"/>
        <path fill="#C4984F" d="M1.272 13.401l36.942-.296"/>
        <path stroke="#FFF" d="M1.272 13.401l36.942-.296"/>
        <path fill="#C4984F" d="M19.327 26.352a.775.775 0 1 0-1.55 0 .775.775 0 0 0 1.55 0"/>
        <path stroke="#FFF" stroke-width=".353" d="M19.327 26.352a.775.775 0 1 0-1.55 0 .775.775 0 0 0 1.55 0z"/>
        <path fill="#C4984F" d="M20.856 26.352a.775.775 0 1 0-1.55 0 .775.775 0 0 0 1.55 0"/>
        <path stroke="#FFF" stroke-width=".353" d="M20.856 26.352a.775.775 0 1 0-1.55 0 .775.775 0 0 0 1.55 0z"/>
        <path fill="#C4984F" d="M22.303 26.157a.774.774 0 1 0-1.499.39.774.774 0 0 0 1.5-.39"/>
        <path stroke="#FFF" stroke-width=".353" d="M22.303 26.157a.774.774 0 1 0-1.499.39.774.774 0 0 0 1.5-.39z"/>
        <path fill="#C4984F" d="M23.793 26.157a.774.774 0 1 0-1.498.39.774.774 0 0 0 1.498-.39"/>
        <path stroke="#FFF" stroke-width=".353" d="M23.793 26.157a.774.774 0 1 0-1.498.39.774.774 0 0 0 1.498-.39z"/>
        <path fill="#C4984F" d="M20.026 25.206a.775.775 0 1 0-1.55 0 .775.775 0 0 0 1.55 0"/>
        <path stroke="#FFF" stroke-width=".353" d="M20.026 25.206a.775.775 0 1 0-1.55 0 .775.775 0 0 0 1.55 0z"/>
        <path fill="#C4984F" d="M21.555 25.206a.775.775 0 1 0-1.55 0 .775.775 0 0 0 1.55 0"/>
        <path stroke="#FFF" stroke-width=".353" d="M21.555 25.206a.775.775 0 1 0-1.55 0 .775.775 0 0 0 1.55 0z"/>
        <path fill="#C4984F" d="M23.002 25.011a.775.775 0 1 0-1.5.391.775.775 0 0 0 1.5-.39"/>
        <path stroke="#FFF" stroke-width=".353" d="M23.002 25.011a.775.775 0 1 0-1.5.391.775.775 0 0 0 1.5-.39z"/>
        <path fill="#C4984F" d="M20.735 24.09a.775.775 0 1 0-1.55-.001.775.775 0 0 0 1.55 0"/>
        <path stroke="#FFF" stroke-width=".353" d="M20.735 24.09a.775.775 0 1 0-1.55-.001.775.775 0 0 0 1.55 0z"/>
        <path fill="#C4984F" d="M22.264 24.09a.775.775 0 1 0-1.55-.001.775.775 0 0 0 1.55 0"/>
        <path stroke="#FFF" stroke-width=".353" d="M22.264 24.09a.775.775 0 1 0-1.55-.001.775.775 0 0 0 1.55 0z"/>
    </g>
</svg>
