<svg xmlns="http://www.w3.org/2000/svg" width="31" height="30" viewBox="0 0 31 30">
    <g fill="none" fill-rule="evenodd">
        <path fill="#AFAFAF" d="M23.258 23.387H7.354V11.844c0-.744.604-1.348 1.348-1.348H21.91c.744 0 1.347.604 1.347 1.348v11.543z"/>
        <path fill="#FFFEFD" d="M10.92 20.653c0-.643-.542-1.164-1.21-1.164-.669 0-1.21.521-1.21 1.164 0 .643.541 1.165 1.21 1.165.668 0 1.21-.522 1.21-1.165M22.113 20.653c0-.643-.542-1.164-1.21-1.164-.669 0-1.21.521-1.21 1.164 0 .643.541 1.165 1.21 1.165.668 0 1.21-.522 1.21-1.165M13.897 20.497h2.819v-.468h-2.82zM13.897 21.433h2.819v-.469h-2.82z"/>
        <path fill="#AFAFAF" d="M7.398 29.75l3.078-6.33h.791l-2.465 6.326zM23.46 29.75l-3.077-6.33h-.792l2.466 6.326z"/>
        <path fill="#AFAFAF" d="M10.21 25.069h10.278v-.263H10.211z"/>
        <path fill="#FFFEFD" d="M9.626 11.7c-.555 0-1.005.433-1.005.968v3.67h6.028V11.7H9.626zM21.78 12.668c0-.535-.45-.968-1.005-.968h-5.023v4.638h6.028v-3.67z"/>
        <path fill="#AFAFAF" d="M2.725 29.803V14.624h.001c.68-6.368 6.067-11.328 12.615-11.328s11.935 4.96 12.615 11.328h.012v15.179h2.809V14.624h.038C30.187 6.657 23.536.384 15.408.384 7.283.385.635 6.655.003 14.617H0v15.187h2.725z"/>
        <path stroke="#AFAFAF" stroke-width=".799" d="M13.625 10.877h3.363V8.9h-3.363zM11.73 8.404l.576.496h6l.573-.493"/>
    </g>
</svg>
