<svg xmlns="http://www.w3.org/2000/svg" xmlns:xlink="http://www.w3.org/1999/xlink" width="25" height="30" viewBox="0 0 25 30">
    <defs>
        <path id="a" d="M0 29.959h24.997V0H0z"/>
    </defs>
    <g fill="none" fill-rule="evenodd">
        <path fill="#C4984F" d="M24.684 20.736H0V2.127A2.13 2.13 0 0 1 2.132 0h20.42a2.13 2.13 0 0 1 2.132 2.127v18.61z"/>
        <path fill="#FFFEFD" d="M5.534 16.339c0-1.035-.84-1.874-1.878-1.874a1.876 1.876 0 0 0-1.878 1.874c0 1.034.84 1.873 1.878 1.873a1.876 1.876 0 0 0 1.878-1.873M22.906 16.339c0-1.035-.84-1.874-1.878-1.874a1.876 1.876 0 0 0-1.878 1.874c0 1.034.84 1.873 1.878 1.873a1.876 1.876 0 0 0 1.878-1.873M22.39 9.397H1.965V3.493c0-.86.699-1.557 1.56-1.557H20.83c.862 0 1.56.697 1.56 1.557v5.904z"/>
        <mask id="b" fill="#fff">
            <use xlink:href="#a"/>
        </mask>
        <path fill="#FFFEFD" d="M10.154 16.087h4.375v-.752h-4.375zM10.154 17.592h4.375v-.752h-4.375z" mask="url(#b)"/>
        <path fill="#C4984F" d="M.068 29.959l4.777-9.176h1.228l-3.826 9.17zM24.998 29.959l-4.777-9.176h-1.229l3.827 9.17z" mask="url(#b)"/>
        <path fill="#C4984F" d="M4.433 23.39h15.95v-.596H4.434zM2.578 26.963h19.661V25.84H2.578z" mask="url(#b)"/>
    </g>
</svg>
